<?xml version="1.0" encoding="UTF-8"?>
<svg xmlns="http://www.w3.org/2000/svg" xmlns:xlink="http://www.w3.org/1999/xlink" width="50px" height="50px" viewBox="0 0 50 50" version="1.1">
<g id="surface1">
<path style=" stroke:none;fill-rule:nonzero;fill:rgb(0%,0%,0%);fill-opacity:1;" d="M 23.046875 44.140625 C 22.507812 44.140625 22.070312 44.578125 22.070312 45.117188 C 22.070312 45.65625 22.507812 46.09375 23.046875 46.09375 C 23.585938 46.09375 24.023438 45.65625 24.023438 45.117188 C 24.023438 44.578125 23.585938 44.140625 23.046875 44.140625 Z M 23.046875 44.140625 "/>
<path style=" stroke:none;fill-rule:nonzero;fill:rgb(0%,0%,0%);fill-opacity:1;" d="M 42.734375 21.144531 C 43.261719 20.464844 43.554688 19.628906 43.554688 18.75 C 43.554688 16.597656 41.800781 14.84375 39.648438 14.84375 L 37.472656 14.84375 L 41.304688 6.171875 C 42.007812 4.730469 41.417969 2.980469 39.980469 2.261719 C 38.535156 1.539062 36.773438 2.128906 36.050781 3.570312 C 36.042969 3.582031 36.039062 3.59375 36.035156 3.609375 L 30.972656 14.84375 L 30.859375 14.84375 C 28.730469 14.84375 13.09375 14.84375 10.351562 14.84375 C 8.199219 14.84375 6.445312 16.597656 6.445312 18.75 C 6.445312 19.628906 6.738281 20.464844 7.265625 21.144531 C 5.449219 24.261719 4.492188 27.808594 4.492188 31.445312 C 4.492188 42.226562 13.5 50 23.585938 50 L 26.410156 50 C 36.515625 50 45.507812 42.203125 45.507812 31.445312 C 45.507812 27.808594 44.550781 24.265625 42.734375 21.144531 Z M 39.648438 16.796875 C 40.726562 16.796875 41.601562 17.671875 41.601562 18.75 C 41.601562 19.824219 40.730469 20.703125 39.648438 20.703125 L 35.742188 20.703125 L 35.742188 16.796875 C 36.917969 16.796875 38.398438 16.796875 39.648438 16.796875 Z M 37.804688 4.429688 C 38.050781 3.960938 38.632812 3.769531 39.109375 4.007812 C 39.589844 4.25 39.785156 4.839844 39.542969 5.320312 C 39.539062 5.335938 39.53125 5.347656 39.523438 5.363281 L 35.335938 14.84375 C 34.808594 14.84375 33.648438 14.84375 33.117188 14.84375 Z M 16.210938 16.796875 C 20.035156 16.796875 29.9375 16.796875 33.789062 16.796875 L 33.789062 27.539062 C 33.789062 28.078125 33.351562 28.515625 32.8125 28.515625 C 32.273438 28.515625 31.835938 28.078125 31.835938 27.539062 L 31.835938 23.632812 C 31.835938 22.015625 30.523438 20.703125 28.90625 20.703125 C 27.289062 20.703125 25.976562 22.015625 25.976562 23.632812 L 25.976562 31.445312 C 25.976562 31.984375 25.539062 32.421875 25 32.421875 C 24.460938 32.421875 24.023438 31.984375 24.023438 31.445312 L 24.023438 21.679688 C 24.023438 20.0625 22.710938 18.75 21.09375 18.75 C 19.476562 18.75 18.164062 20.0625 18.164062 21.679688 C 18.164062 22.21875 17.726562 22.65625 17.1875 22.65625 C 16.648438 22.65625 16.210938 22.21875 16.210938 21.679688 Z M 10.351562 16.796875 L 14.257812 16.796875 L 14.257812 20.703125 L 10.351562 20.703125 C 9.894531 20.703125 9.464844 20.546875 9.109375 20.257812 C 8.65625 19.882812 8.398438 19.335938 8.398438 18.75 C 8.398438 17.671875 9.273438 16.796875 10.351562 16.796875 Z M 26.410156 48.046875 L 23.585938 48.046875 C 15.34375 48.046875 6.445312 41.699219 6.445312 31.445312 C 6.445312 28.238281 7.265625 25.113281 8.828125 22.34375 C 9.304688 22.546875 9.824219 22.65625 10.351562 22.65625 L 14.425781 22.65625 C 14.828125 23.792969 15.914062 24.609375 17.1875 24.609375 C 18.804688 24.609375 20.117188 23.296875 20.117188 21.679688 C 20.117188 21.140625 20.554688 20.703125 21.09375 20.703125 C 21.632812 20.703125 22.070312 21.140625 22.070312 21.679688 L 22.070312 31.445312 C 22.070312 33.0625 23.382812 34.375 25 34.375 C 26.617188 34.375 27.929688 33.0625 27.929688 31.445312 L 27.929688 23.632812 C 27.929688 23.09375 28.367188 22.65625 28.90625 22.65625 C 29.445312 22.65625 29.882812 23.09375 29.882812 23.632812 L 29.882812 27.539062 C 29.882812 29.15625 31.195312 30.46875 32.8125 30.46875 C 34.429688 30.46875 35.742188 29.15625 35.742188 27.539062 L 35.742188 22.65625 L 39.648438 22.65625 C 40.175781 22.65625 40.691406 22.546875 41.171875 22.34375 C 42.734375 25.113281 43.554688 28.242188 43.554688 31.445312 C 43.554688 40.597656 35.863281 48.046875 26.410156 48.046875 Z M 26.410156 48.046875 "/>
<path style=" stroke:none;fill-rule:nonzero;fill:rgb(0%,0%,0%);fill-opacity:1;" d="M 19.5 43.488281 C 15.28125 42.140625 10.351562 38.175781 10.351562 31.445312 C 10.351562 30.90625 9.914062 30.46875 9.375 30.46875 C 8.835938 30.46875 8.398438 30.90625 8.398438 31.445312 C 8.398438 38.179688 12.875 43.421875 18.90625 45.347656 C 19.003906 45.378906 19.105469 45.394531 19.203125 45.394531 C 19.617188 45.394531 20 45.132812 20.132812 44.714844 C 20.296875 44.203125 20.015625 43.652344 19.5 43.488281 Z M 19.5 43.488281 "/>
<path style=" stroke:none;fill-rule:nonzero;fill:rgb(0%,0%,0%);fill-opacity:1;" d="M 25 3.90625 C 23.382812 3.90625 22.070312 5.21875 22.070312 6.835938 C 22.070312 8.453125 23.382812 9.765625 25 9.765625 C 26.617188 9.765625 27.929688 8.453125 27.929688 6.835938 C 27.929688 5.21875 26.617188 3.90625 25 3.90625 Z M 25 7.8125 C 24.460938 7.8125 24.023438 7.375 24.023438 6.835938 C 24.023438 6.296875 24.460938 5.859375 25 5.859375 C 25.539062 5.859375 25.976562 6.296875 25.976562 6.835938 C 25.976562 7.375 25.539062 7.8125 25 7.8125 Z M 25 7.8125 "/>
<path style=" stroke:none;fill-rule:nonzero;fill:rgb(0%,0%,0%);fill-opacity:1;" d="M 14.257812 0 C 12.105469 0 10.351562 1.753906 10.351562 3.90625 C 10.351562 6.058594 12.105469 7.8125 14.257812 7.8125 C 16.410156 7.8125 18.164062 6.058594 18.164062 3.90625 C 18.164062 1.753906 16.410156 0 14.257812 0 Z M 14.257812 5.859375 C 13.179688 5.859375 12.304688 4.984375 12.304688 3.90625 C 12.304688 2.828125 13.179688 1.953125 14.257812 1.953125 C 15.335938 1.953125 16.210938 2.828125 16.210938 3.90625 C 16.210938 4.984375 15.335938 5.859375 14.257812 5.859375 Z M 14.257812 5.859375 "/>
<path style=" stroke:none;fill-rule:nonzero;fill:rgb(0%,0%,0%);fill-opacity:1;" d="M 32.8125 32.421875 C 31.195312 32.421875 29.882812 33.734375 29.882812 35.351562 C 29.882812 36.96875 31.195312 38.28125 32.8125 38.28125 C 34.429688 38.28125 35.742188 36.96875 35.742188 35.351562 C 35.742188 33.734375 34.429688 32.421875 32.8125 32.421875 Z M 32.8125 36.328125 C 32.273438 36.328125 31.835938 35.890625 31.835938 35.351562 C 31.835938 34.8125 32.273438 34.375 32.8125 34.375 C 33.351562 34.375 33.789062 34.8125 33.789062 35.351562 C 33.789062 35.890625 33.351562 36.328125 32.8125 36.328125 Z M 32.8125 36.328125 "/>
<path style=" stroke:none;fill-rule:nonzero;fill:rgb(0%,0%,0%);fill-opacity:1;" d="M 17.1875 26.5625 C 15.570312 26.5625 14.257812 27.875 14.257812 29.492188 C 14.257812 31.109375 15.570312 32.421875 17.1875 32.421875 C 18.804688 32.421875 20.117188 31.109375 20.117188 29.492188 C 20.117188 27.875 18.804688 26.5625 17.1875 26.5625 Z M 17.1875 30.46875 C 16.648438 30.46875 16.210938 30.03125 16.210938 29.492188 C 16.210938 28.953125 16.648438 28.515625 17.1875 28.515625 C 17.726562 28.515625 18.164062 28.953125 18.164062 29.492188 C 18.164062 30.03125 17.726562 30.46875 17.1875 30.46875 Z M 17.1875 30.46875 "/>
</g>
</svg>
