<?xml version="1.0" encoding="iso-8859-1"?>
<!-- Generator: Adobe Illustrator 19.0.0, SVG Export Plug-In . SVG Version: 6.00 Build 0)  -->
<svg version="1.1" id="Capa_1" xmlns="http://www.w3.org/2000/svg" xmlns:xlink="http://www.w3.org/1999/xlink" x="0px" y="0px"
	 viewBox="0 0 512 512" style="enable-background:new 0 0 512 512;" xml:space="preserve">
<g>
	<g>
		<path d="M236,452c-5.52,0-10,4.48-10,10c0,5.52,4.48,10,10,10s10-4.48,10-10C246,456.48,241.52,452,236,452z"/>
	</g>
</g>
<g>
	<g>
		<path d="M437.609,216.523C443.011,209.576,446,200.996,446,192c0-22.056-17.944-40-40-40h-22.29l39.232-88.814
			c7.215-14.757,1.184-32.664-13.536-40.023c-14.796-7.383-32.852-1.366-40.248,13.412c-0.061,0.122-0.119,0.245-0.176,0.37
			L317.166,152H316c-21.781,0-181.939,0-210,0c-22.056,0-40,17.944-40,40c0,8.986,2.986,17.562,8.385,24.509
			C55.793,248.452,46,284.754,46,322c0,110.41,92.225,190,195.54,190h28.92C373.923,512,466,432.175,466,322
			C466,284.77,456.205,248.474,437.609,216.523z M406,172c11.028,0,20,8.972,20,20c0,11.01-8.91,20-20,20h-40v-40
			C378.039,172,393.211,172,406,172z M387.119,45.375c2.514-4.818,8.467-6.755,13.35-4.32c4.929,2.465,6.933,8.488,4.465,13.427
			c-0.07,0.141-0.138,0.284-0.201,0.428L361.845,152c-5.416,0-17.267,0-22.745,0L387.119,45.375z M166,172c39.173,0,140.543,0,180,0
			v110c0,5.514-4.486,10-10,10c-5.514,0-10-4.486-10-10v-40c0-16.542-13.458-30-30-30s-30,13.458-30,30v80c0,5.514-4.486,10-10,10
			c-5.514,0-10-4.486-10-10V222c0-16.542-13.458-30-30-30s-30,13.458-30,30c0,5.514-4.486,10-10,10c-5.514,0-10-4.486-10-10V172z
			 M106,172h40v40h-40c-4.697,0-9.099-1.582-12.723-4.57C88.652,203.61,86,197.986,86,192C86,180.972,94.972,172,106,172z
			 M270.46,492h-28.92C157.118,492,66,427.004,66,322c0-32.834,8.406-64.849,24.385-93.19C95.297,230.893,100.609,232,106,232h41.72
			c4.128,11.639,15.243,20,28.28,20c16.542,0,30-13.458,30-30c0-5.514,4.486-10,10-10c5.514,0,10,4.486,10,10v100
			c0,16.542,13.458,30,30,30s30-13.458,30-30v-80c0-5.514,4.486-10,10-10c5.514,0,10,4.486,10,10v40c0,16.542,13.458,30,30,30
			s30-13.458,30-30v-50h40c5.388,0,10.697-1.105,15.603-3.182C437.59,257.168,446,289.18,446,322
			C446,415.738,367.253,492,270.46,492z"/>
	</g>
</g>
<g>
	<g>
		<path d="M199.687,445.326C156.468,431.501,106,390.908,106,322c0-5.523-4.478-10-10-10c-5.522,0-10,4.477-10,10
			c0,68.965,45.859,122.628,107.593,142.375c1.014,0.324,2.04,0.478,3.049,0.478c4.232,0,8.164-2.709,9.522-6.956
			C207.847,452.636,204.946,447.008,199.687,445.326z"/>
	</g>
</g>
<g>
	<g>
		<path d="M256,40c-16.542,0-30,13.458-30,30s13.458,30,30,30s30-13.458,30-30S272.542,40,256,40z M256,80c-5.514,0-10-4.486-10-10
			s4.486-10,10-10c5.514,0,10,4.486,10,10S261.514,80,256,80z"/>
	</g>
</g>
<g>
	<g>
		<path d="M146,0c-22.056,0-40,17.944-40,40c0,22.056,17.944,40,40,40c22.056,0,40-17.944,40-40C186,17.944,168.056,0,146,0z
			 M146,60c-11.028,0-20-8.972-20-20s8.972-20,20-20s20,8.972,20,20S157.028,60,146,60z"/>
	</g>
</g>
<g>
	<g>
		<path d="M336,332c-16.542,0-30,13.458-30,30s13.458,30,30,30s30-13.458,30-30S352.542,332,336,332z M336,372
			c-5.514,0-10-4.486-10-10c0-5.514,4.486-10,10-10c5.514,0,10,4.486,10,10C346,367.514,341.514,372,336,372z"/>
	</g>
</g>
<g>
	<g>
		<path d="M176,272c-16.542,0-30,13.458-30,30s13.458,30,30,30s30-13.458,30-30S192.542,272,176,272z M176,312
			c-5.514,0-10-4.486-10-10c0-5.514,4.486-10,10-10c5.514,0,10,4.486,10,10C186,307.514,181.514,312,176,312z"/>
	</g>
</g>
<g>
</g>
<g>
</g>
<g>
</g>
<g>
</g>
<g>
</g>
<g>
</g>
<g>
</g>
<g>
</g>
<g>
</g>
<g>
</g>
<g>
</g>
<g>
</g>
<g>
</g>
<g>
</g>
<g>
</g>
</svg>
