<?xml version="1.0" encoding="UTF-8"?>
<svg xmlns="http://www.w3.org/2000/svg" xmlns:xlink="http://www.w3.org/1999/xlink" width="50px" height="50px" viewBox="0 0 50 50" version="1.1">
<g id="surface1">
<path style=" stroke:none;fill-rule:nonzero;fill:rgb(0%,0%,0%);fill-opacity:1;" d="M 6.800781 17.820312 C 8.457031 18.242188 9.589844 19.390625 10.257812 21.339844 C 10.390625 21.722656 10.746094 21.984375 11.148438 21.996094 C 11.160156 21.996094 11.171875 21.996094 11.183594 21.996094 C 11.574219 21.996094 11.929688 21.761719 12.082031 21.398438 C 12.839844 19.589844 14.011719 18.40625 15.664062 17.789062 C 16.027344 17.65625 16.273438 17.316406 16.296875 16.933594 C 16.316406 16.546875 16.109375 16.183594 15.765625 16.007812 C 13.6875 14.949219 12.496094 13.792969 12.121094 12.464844 C 12 12.046875 11.617188 11.757812 11.179688 11.757812 C 11.179688 11.757812 11.175781 11.757812 11.175781 11.757812 C 10.738281 11.761719 10.355469 12.054688 10.238281 12.476562 C 9.816406 14.042969 8.652344 15.1875 6.679688 15.96875 C 6.289062 16.128906 6.039062 16.519531 6.066406 16.941406 C 6.09375 17.363281 6.390625 17.71875 6.800781 17.820312 Z M 11.226562 14.933594 C 11.746094 15.609375 12.4375 16.238281 13.300781 16.824219 C 12.503906 17.363281 11.820312 18.042969 11.25 18.867188 C 10.71875 18.007812 10.066406 17.320312 9.289062 16.808594 C 10.089844 16.273438 10.738281 15.648438 11.226562 14.933594 Z M 11.226562 14.933594 "/>
<path style=" stroke:none;fill-rule:nonzero;fill:rgb(0%,0%,0%);fill-opacity:1;" d="M 44.921875 32.046875 C 44.921875 28.285156 36.996094 26.199219 28.777344 25.726562 C 28.851562 25.261719 28.894531 24.78125 28.894531 24.292969 C 28.894531 23.519531 29.113281 23.324219 31.292969 23.226562 C 31.785156 23.203125 32.292969 23.179688 32.808594 23.117188 C 34.46875 22.910156 35.898438 22.25 36.96875 21.210938 C 36.984375 21.253906 37 21.292969 37.015625 21.339844 C 37.148438 21.722656 37.503906 21.984375 37.90625 21.996094 C 37.917969 21.996094 37.929688 21.996094 37.9375 21.996094 C 38.332031 21.996094 38.6875 21.761719 38.839844 21.398438 C 39.597656 19.589844 40.769531 18.410156 42.421875 17.789062 C 42.78125 17.65625 43.03125 17.316406 43.054688 16.933594 C 43.074219 16.546875 42.867188 16.183594 42.523438 16.007812 C 40.445312 14.949219 39.253906 13.792969 38.875 12.464844 C 38.757812 12.046875 38.375 11.757812 37.9375 11.757812 C 37.9375 11.757812 37.933594 11.757812 37.933594 11.757812 C 37.636719 11.757812 37.367188 11.894531 37.1875 12.113281 C 35.808594 10.667969 33.742188 9.867188 31.273438 9.863281 L 26.792969 9.859375 C 26.398438 9.855469 26.292969 9.671875 26.257812 9.609375 C 26.160156 9.4375 26.164062 9.203125 26.261719 9.035156 C 26.363281 8.863281 26.566406 8.777344 26.863281 8.785156 L 31.265625 8.785156 C 34.328125 8.785156 36.640625 8.335938 38.140625 7.453125 C 39.878906 6.429688 40.246094 5.042969 40.246094 4.058594 C 40.246094 2.164062 38.757812 0 37.453125 0 C 36.835938 0 36.546875 0.484375 36.335938 0.835938 C 35.84375 1.664062 35.238281 2.472656 33.8125 2.472656 C 33.804688 2.472656 33.800781 2.472656 33.796875 2.472656 C 32.417969 2.46875 30.984375 2.480469 29.9375 2.488281 C 29.355469 2.496094 28.875 2.5 28.554688 2.5 L 25.578125 2.5 C 22.648438 2.5 20.179688 3.207031 18.441406 4.542969 C 16.832031 5.78125 15.925781 7.480469 15.894531 9.332031 C 15.839844 12.515625 18.507812 15.835938 23.726562 16.023438 L 24.324219 16.042969 C 24.835938 16.058594 25.238281 16.667969 25.234375 17.160156 C 25.230469 17.324219 25.226562 17.828125 24.128906 17.84375 C 22.691406 17.859375 22.441406 17.855469 22.027344 17.84375 C 21.636719 17.832031 21.097656 17.820312 19.34375 17.820312 C 17.988281 17.820312 16.875 18.410156 16.285156 19.441406 C 15.6875 20.492188 15.714844 21.878906 16.359375 22.972656 C 17.015625 24.085938 18.164062 24.71875 19.515625 24.71875 C 19.535156 24.71875 19.550781 24.71875 19.570312 24.71875 C 19.742188 24.714844 19.917969 24.707031 20.085938 24.703125 C 21.0625 24.660156 21.6875 24.671875 22.15625 25.121094 C 22.28125 25.242188 22.417969 25.417969 22.542969 25.664062 C 13.894531 25.984375 5.078125 28.054688 5.078125 32.046875 C 5.078125 34.457031 8.339844 36.210938 12.984375 37.273438 L 12.984375 46.949219 C 12.984375 47.304688 13.175781 47.628906 13.484375 47.800781 C 15.953125 49.179688 20.429688 50 25.464844 50 L 25.476562 50 C 30.566406 50 34.710938 49.144531 36.570312 47.714844 C 36.808594 47.527344 36.949219 47.242188 36.949219 46.941406 L 36.949219 42.191406 C 36.949219 42.191406 36.949219 42.191406 36.949219 42.1875 L 36.949219 37.289062 C 41.625 36.226562 44.921875 34.46875 44.921875 32.046875 Z M 37.984375 14.933594 C 38.503906 15.609375 39.191406 16.238281 40.058594 16.824219 C 39.261719 17.363281 38.578125 18.042969 38.003906 18.867188 C 37.476562 18.007812 36.824219 17.320312 36.046875 16.808594 C 36.847656 16.273438 37.492188 15.648438 37.984375 14.933594 Z M 20.007812 22.753906 C 19.84375 22.757812 19.691406 22.765625 19.546875 22.765625 C 18.6875 22.78125 18.257812 22.347656 18.042969 21.984375 C 17.75 21.488281 17.726562 20.855469 17.980469 20.410156 C 18.28125 19.882812 18.886719 19.769531 19.34375 19.769531 C 21.074219 19.769531 21.597656 19.785156 21.976562 19.792969 C 22.414062 19.804688 22.679688 19.8125 24.152344 19.792969 C 26.367188 19.765625 27.171875 18.367188 27.183594 17.183594 C 27.203125 15.738281 26.085938 14.152344 24.390625 14.089844 L 23.792969 14.070312 C 21.910156 14.003906 20.34375 13.449219 19.253906 12.457031 C 18.324219 11.613281 17.824219 10.515625 17.84375 9.367188 C 17.890625 6.917969 20.296875 4.449219 25.578125 4.449219 L 28.554688 4.449219 C 28.878906 4.449219 29.355469 4.445312 29.957031 4.441406 C 30.996094 4.429688 32.421875 4.417969 33.789062 4.421875 L 33.8125 4.421875 C 35.949219 4.421875 37.09375 3.207031 37.679688 2.359375 C 38.046875 2.863281 38.4375 3.695312 38.246094 4.484375 C 37.878906 5.976562 35.335938 6.835938 31.265625 6.835938 L 26.890625 6.835938 C 25.886719 6.816406 25.050781 7.257812 24.585938 8.039062 C 24.132812 8.804688 24.121094 9.796875 24.5625 10.574219 C 25.007812 11.355469 25.820312 11.808594 26.789062 11.808594 L 31.273438 11.8125 C 33.535156 11.816406 35.273438 12.597656 36.230469 14.023438 C 35.613281 14.828125 34.6875 15.472656 33.4375 15.96875 C 33.042969 16.125 32.796875 16.519531 32.824219 16.941406 C 32.851562 17.363281 33.148438 17.71875 33.558594 17.824219 C 34.554688 18.074219 35.359375 18.59375 35.992188 19.390625 C 35.203125 20.375 34.011719 21.003906 32.570312 21.179688 C 32.128906 21.234375 31.65625 21.253906 31.203125 21.277344 C 30.226562 21.320312 29.308594 21.363281 28.53125 21.699219 C 27.808594 22.011719 26.941406 22.71875 26.941406 24.292969 C 26.941406 25.828125 26.4375 27.550781 25.105469 28.402344 C 24.964844 26.121094 24.445312 24.613281 23.507812 23.710938 C 22.40625 22.65625 21.019531 22.710938 20.007812 22.753906 Z M 16.21875 28.433594 C 18.082031 27.992188 20.488281 27.703125 23.070312 27.605469 C 23.148438 28.203125 23.199219 28.925781 23.199219 29.808594 C 23.199219 30.101562 23.328125 30.378906 23.554688 30.5625 C 23.730469 30.707031 23.949219 30.78125 24.171875 30.78125 C 24.238281 30.78125 24.304688 30.777344 24.367188 30.761719 C 25.882812 30.453125 27.101562 29.574219 27.898438 28.226562 C 28.003906 28.046875 28.101562 27.859375 28.191406 27.667969 C 30.5 27.816406 32.628906 28.125 34.238281 28.546875 C 36.15625 29.054688 36.71875 29.546875 36.863281 29.714844 C 36.699219 29.902344 35.996094 30.511719 33.417969 31.074219 C 31.117188 31.582031 28.125 31.859375 25 31.859375 C 21.871094 31.859375 18.882812 31.582031 16.578125 31.074219 C 14.003906 30.511719 13.300781 29.902344 13.136719 29.714844 C 13.289062 29.535156 13.933594 28.976562 16.21875 28.433594 Z M 7.027344 32.046875 C 7.027344 31.402344 8.128906 30.316406 11.195312 29.335938 C 11.167969 29.457031 11.152344 29.582031 11.152344 29.714844 C 11.152344 31.097656 12.628906 32.128906 15.667969 32.867188 C 18.171875 33.476562 21.484375 33.808594 25 33.808594 C 28.511719 33.808594 31.828125 33.476562 34.332031 32.867188 C 37.371094 32.128906 38.847656 31.097656 38.847656 29.714844 C 38.847656 29.585938 38.835938 29.457031 38.808594 29.335938 C 38.84375 29.347656 38.882812 29.359375 38.917969 29.371094 C 41.910156 30.347656 42.96875 31.421875 42.96875 32.046875 C 42.96875 32.804688 41.472656 34.003906 38.125 34.96875 C 37.410156 35.175781 36.640625 35.363281 35.832031 35.53125 C 35.792969 35.535156 35.753906 35.542969 35.71875 35.554688 C 32.613281 36.1875 28.902344 36.527344 25 36.527344 C 20.027344 36.527344 15.367188 35.972656 11.871094 34.96875 C 8.527344 34.003906 7.027344 32.804688 7.027344 32.046875 Z M 35 41.507812 C 33.269531 42.136719 31.160156 42.601562 28.859375 42.855469 C 28.324219 42.914062 27.9375 43.394531 27.996094 43.929688 C 28.050781 44.429688 28.472656 44.800781 28.964844 44.800781 C 29 44.800781 29.035156 44.796875 29.074219 44.792969 C 31.242188 44.554688 33.261719 44.136719 35 43.570312 L 35 46.421875 C 33.300781 47.417969 29.664062 48.046875 25.476562 48.050781 C 25.472656 48.050781 25.46875 48.050781 25.464844 48.050781 C 21.15625 48.050781 17.207031 47.40625 14.933594 46.351562 L 14.933594 43.609375 C 16.683594 44.207031 18.789062 44.636719 21.117188 44.855469 C 21.148438 44.859375 21.179688 44.859375 21.210938 44.859375 C 21.710938 44.859375 22.132812 44.480469 22.183594 43.976562 C 22.234375 43.441406 21.839844 42.964844 21.300781 42.914062 C 18.824219 42.679688 16.640625 42.203125 14.933594 41.535156 L 14.933594 37.664062 C 18.007812 38.203125 21.511719 38.480469 25 38.480469 C 28.464844 38.480469 31.941406 38.207031 35 37.675781 Z M 35 41.507812 "/>
<path style=" stroke:none;fill-rule:nonzero;fill:rgb(0%,0%,0%);fill-opacity:1;" d="M 24.941406 43.074219 C 24.402344 43.074219 23.964844 43.507812 23.964844 44.046875 C 23.964844 44.585938 24.402344 45.023438 24.941406 45.023438 L 24.960938 45.023438 C 25.5 45.023438 25.9375 44.585938 25.9375 44.046875 C 25.9375 43.507812 25.5 43.074219 24.960938 43.074219 Z M 24.941406 43.074219 "/>
</g>
</svg>
