<?xml version="1.0" encoding="UTF-8"?>
<svg xmlns="http://www.w3.org/2000/svg" xmlns:xlink="http://www.w3.org/1999/xlink" width="50px" height="50px" viewBox="0 0 50 50" version="1.1">
<g id="surface1">
<path style=" stroke:none;fill-rule:nonzero;fill:rgb(0%,0%,0%);fill-opacity:1;" d="M 46.855469 35.574219 C 45.929688 35.101562 45.144531 34.617188 44.492188 34.109375 C 47.800781 30.433594 49.609375 25.730469 49.609375 20.753906 C 49.609375 16.5625 48.34375 12.585938 45.933594 9.203125 C 46.703125 8.535156 47.585938 8.015625 48.589844 7.640625 C 48.953125 7.503906 49.203125 7.167969 49.226562 6.777344 C 49.25 6.390625 49.039062 6.027344 48.691406 5.851562 C 45.710938 4.335938 43.992188 2.652344 43.441406 0.710938 C 43.320312 0.289062 42.9375 0 42.5 0 C 42.496094 0 42.496094 0 42.496094 0 C 42.054688 0.00390625 41.671875 0.296875 41.554688 0.71875 C 41.253906 1.824219 40.707031 2.78125 39.902344 3.605469 C 36.792969 1.738281 33.246094 0.753906 29.589844 0.753906 C 26.410156 0.753906 23.367188 1.476562 20.546875 2.90625 C 18.105469 4.144531 15.917969 5.902344 14.164062 8.015625 C 13.011719 7.335938 12.191406 6.527344 11.695312 5.574219 C 11.492188 5.183594 11.050781 4.980469 10.625 5.070312 C 10.195312 5.160156 9.878906 5.527344 9.851562 5.96875 C 9.710938 8.273438 8.433594 10.195312 5.9375 11.839844 C 5.582031 12.074219 5.421875 12.507812 5.535156 12.914062 C 5.648438 13.324219 6.011719 13.613281 6.433594 13.632812 C 7.9375 13.695312 9.238281 14.203125 10.367188 15.171875 C 9.84375 16.984375 9.574219 18.855469 9.574219 20.753906 C 9.574219 25.011719 10.953125 29.1875 13.46875 32.605469 L 1.433594 44.039062 C 0.773438 44.667969 0.402344 45.527344 0.390625 46.453125 C 0.378906 47.394531 0.753906 48.316406 1.417969 48.980469 C 2.078125 49.636719 2.953125 50 3.890625 50 L 3.914062 50 C 4.84375 49.992188 5.707031 49.628906 6.351562 48.96875 L 8.953125 46.300781 C 9.332031 45.914062 9.324219 45.292969 8.9375 44.917969 C 8.550781 44.539062 7.929688 44.546875 7.554688 44.933594 L 4.949219 47.605469 C 4.675781 47.886719 4.304688 48.042969 3.898438 48.046875 C 3.484375 48.050781 3.089844 47.886719 2.796875 47.597656 C 2.503906 47.304688 2.339844 46.894531 2.34375 46.480469 C 2.351562 46.082031 2.503906 45.71875 2.78125 45.457031 L 23.429688 25.835938 L 24.191406 26.152344 L 24.632812 27.210938 L 17.183594 34.941406 C 17.128906 34.984375 17.082031 35.03125 17.039062 35.089844 C 17.035156 35.089844 17.035156 35.09375 17.03125 35.097656 L 12.941406 39.339844 C 12.566406 39.730469 12.578125 40.347656 12.964844 40.722656 C 13.355469 41.097656 13.972656 41.085938 14.347656 40.699219 L 17.914062 37 C 21.324219 39.457031 25.34375 40.753906 29.589844 40.753906 C 32.640625 40.753906 35.667969 40.054688 38.382812 38.722656 C 39.222656 39.492188 39.867188 40.550781 40.335938 41.910156 C 40.46875 42.292969 40.824219 42.554688 41.230469 42.566406 C 41.238281 42.566406 41.25 42.566406 41.261719 42.566406 C 41.652344 42.566406 42.007812 42.332031 42.164062 41.96875 C 43.132812 39.65625 44.632812 38.148438 46.75 37.359375 C 47.117188 37.222656 47.363281 36.886719 47.386719 36.5 C 47.410156 36.113281 47.199219 35.75 46.855469 35.574219 Z M 42.542969 3.359375 C 43.347656 4.558594 44.539062 5.652344 46.136719 6.652344 C 45.34375 7.128906 44.625 7.699219 43.984375 8.371094 C 43.964844 8.386719 43.945312 8.40625 43.925781 8.425781 C 43.429688 8.953125 42.976562 9.546875 42.570312 10.199219 C 41.710938 8.621094 40.570312 7.429688 39.160156 6.632812 C 40.640625 5.75 41.769531 4.65625 42.542969 3.359375 Z M 8.804688 12.082031 C 10.023438 10.957031 10.875 9.703125 11.355469 8.332031 C 12.351562 9.304688 13.691406 10.101562 15.386719 10.734375 C 14.203125 11.832031 13.3125 13.183594 12.71875 14.777344 C 12.71875 14.773438 12.714844 14.773438 12.714844 14.769531 C 12.632812 14.675781 12.550781 14.585938 12.46875 14.496094 C 12.449219 14.472656 12.425781 14.449219 12.40625 14.425781 C 12.335938 14.351562 12.269531 14.28125 12.203125 14.214844 C 12.191406 14.203125 12.183594 14.191406 12.171875 14.183594 C 12.167969 14.179688 12.167969 14.179688 12.164062 14.175781 C 11.171875 13.183594 10.050781 12.484375 8.804688 12.082031 Z M 23.601562 23.785156 L 23.597656 23.785156 C 23.597656 23.785156 23.59375 23.785156 23.589844 23.78125 L 19.984375 22.273438 L 24.363281 18.507812 C 24.558594 18.339844 24.679688 18.105469 24.703125 17.847656 L 25.179688 12.09375 L 30.113281 15.089844 C 30.332031 15.222656 30.597656 15.265625 30.84375 15.207031 L 36.46875 13.882812 L 35.144531 19.5 C 35.085938 19.75 35.125 20.011719 35.261719 20.230469 L 38.257812 25.164062 L 32.503906 25.640625 C 32.246094 25.664062 32.011719 25.785156 31.84375 25.976562 L 28.070312 30.351562 L 25.839844 25.027344 C 25.738281 24.792969 25.550781 24.605469 25.316406 24.503906 Z M 35.136719 36.507812 C 35.164062 36.929688 35.460938 37.289062 35.871094 37.390625 C 36.015625 37.429688 36.15625 37.46875 36.296875 37.515625 C 34.175781 38.359375 31.894531 38.800781 29.589844 38.800781 C 25.851562 38.800781 22.3125 37.6875 19.285156 35.574219 L 25.457031 29.171875 L 26.878906 32.566406 C 27.007812 32.878906 27.292969 33.101562 27.625 33.152344 C 27.679688 33.160156 27.730469 33.164062 27.78125 33.164062 C 28.0625 33.164062 28.332031 33.042969 28.519531 32.824219 L 33.0625 27.558594 L 39.996094 26.984375 C 40.332031 26.957031 40.632812 26.753906 40.785156 26.453125 C 40.941406 26.152344 40.925781 25.792969 40.75 25.503906 L 37.136719 19.558594 L 38.738281 12.792969 C 38.8125 12.464844 38.714844 12.117188 38.476562 11.878906 C 38.238281 11.636719 37.890625 11.539062 37.5625 11.617188 L 30.785156 13.210938 L 24.839844 9.601562 C 24.550781 9.425781 24.191406 9.414062 23.890625 9.566406 C 23.589844 9.722656 23.386719 10.019531 23.359375 10.355469 L 22.785156 17.285156 L 17.511719 21.824219 C 17.253906 22.042969 17.128906 22.382812 17.183594 22.714844 C 17.234375 23.050781 17.457031 23.335938 17.769531 23.464844 L 21.460938 25.011719 L 14.898438 31.246094 C 12.71875 28.199219 11.53125 24.515625 11.53125 20.753906 C 11.53125 19.476562 11.664062 18.207031 11.929688 16.96875 C 11.9375 16.980469 11.949219 16.996094 11.957031 17.007812 C 11.988281 17.058594 12.019531 17.105469 12.050781 17.152344 C 12.074219 17.1875 12.097656 17.222656 12.117188 17.257812 C 12.167969 17.339844 12.21875 17.421875 12.269531 17.507812 C 12.449219 17.804688 12.769531 17.984375 13.109375 17.984375 C 13.164062 17.984375 13.222656 17.980469 13.277344 17.96875 C 13.675781 17.898438 13.992188 17.589844 14.070312 17.191406 C 14.597656 14.488281 15.878906 12.527344 17.984375 11.203125 C 18.308594 10.996094 18.484375 10.613281 18.429688 10.230469 C 18.371094 9.847656 18.09375 9.535156 17.71875 9.429688 C 17.101562 9.261719 16.53125 9.078125 16.003906 8.878906 C 16.003906 8.878906 16 8.875 15.996094 8.875 C 19.429688 4.941406 24.316406 2.707031 29.589844 2.707031 C 32.632812 2.707031 35.59375 3.464844 38.238281 4.90625 C 37.683594 5.242188 37.066406 5.546875 36.386719 5.816406 C 35.992188 5.972656 35.746094 6.363281 35.773438 6.789062 C 35.800781 7.210938 36.097656 7.566406 36.511719 7.671875 C 38.941406 8.285156 40.597656 9.957031 41.574219 12.789062 C 41.707031 13.171875 42.0625 13.433594 42.46875 13.445312 C 42.480469 13.445312 42.488281 13.445312 42.5 13.445312 C 42.890625 13.445312 43.246094 13.210938 43.402344 12.847656 C 43.734375 12.054688 44.125 11.34375 44.570312 10.714844 C 44.578125 10.707031 44.582031 10.699219 44.589844 10.691406 C 46.597656 13.664062 47.65625 17.121094 47.65625 20.753906 C 47.65625 25.214844 46.042969 29.433594 43.09375 32.738281 C 42.726562 32.265625 42.453125 31.773438 42.277344 31.269531 C 42.273438 31.257812 42.269531 31.246094 42.265625 31.238281 C 42.242188 31.167969 42.222656 31.101562 42.203125 31.035156 C 42.203125 31.035156 42.203125 31.035156 42.203125 31.03125 C 42.089844 30.636719 41.742188 30.355469 41.339844 30.324219 C 41.332031 30.324219 41.324219 30.324219 41.316406 30.324219 C 41.296875 30.324219 41.28125 30.320312 41.261719 30.320312 C 41.257812 30.320312 41.257812 30.320312 41.257812 30.320312 C 40.84375 30.324219 40.480469 30.582031 40.34375 30.964844 C 40.332031 30.988281 40.324219 31.015625 40.316406 31.042969 C 39.769531 33.0625 38.273438 34.535156 35.75 35.535156 C 35.355469 35.691406 35.109375 36.085938 35.136719 36.507812 Z M 41.332031 39.355469 C 40.59375 38.054688 39.636719 37.054688 38.46875 36.359375 C 39.6875 35.609375 40.636719 34.691406 41.308594 33.617188 C 42.007812 34.621094 43.011719 35.535156 44.324219 36.378906 C 43.132812 37.121094 42.132812 38.117188 41.332031 39.355469 Z M 41.332031 39.355469 "/>
<path style=" stroke:none;fill-rule:nonzero;fill:rgb(0%,0%,0%);fill-opacity:1;" d="M 10.273438 42.089844 L 10.257812 42.105469 C 9.875 42.484375 9.875 43.105469 10.257812 43.488281 C 10.449219 43.675781 10.699219 43.773438 10.949219 43.773438 C 11.199219 43.773438 11.449219 43.675781 11.640625 43.488281 L 11.652344 43.472656 C 12.035156 43.089844 12.035156 42.472656 11.652344 42.089844 C 11.273438 41.707031 10.652344 41.707031 10.273438 42.089844 Z M 10.273438 42.089844 "/>
</g>
</svg>
