<?xml version="1.0" encoding="UTF-8"?>
<svg xmlns="http://www.w3.org/2000/svg" xmlns:xlink="http://www.w3.org/1999/xlink" width="50px" height="50px" viewBox="0 0 50 50" version="1.1">
<g id="surface1">
<path style=" stroke:none;fill-rule:nonzero;fill:rgb(0%,0%,0%);fill-opacity:1;" d="M 48.253906 3.707031 C 47.242188 2.136719 45.824219 1.269531 44.261719 1.269531 C 44.261719 1.269531 44.257812 1.269531 44.257812 1.269531 C 44.25 1.269531 44.242188 1.269531 44.234375 1.269531 L 15.085938 1.269531 C 12.398438 1.269531 9.675781 3.691406 9.675781 8.324219 L 9.675781 38.488281 L 0.878906 38.488281 C 0.335938 38.488281 -0.0976562 38.925781 -0.0976562 39.464844 C -0.0859375 45.921875 2.976562 48.808594 6.007812 48.808594 L 6.011719 48.808594 C 6.019531 48.808594 6.027344 48.808594 6.035156 48.808594 L 31.183594 48.808594 C 31.265625 48.808594 31.347656 48.808594 31.425781 48.808594 C 34.6875 48.808594 37.171875 47.988281 38.8125 46.363281 C 40.285156 44.910156 41.035156 42.878906 41.035156 40.328125 L 41.035156 27.796875 C 41.035156 27.257812 40.597656 26.820312 40.058594 26.820312 C 39.515625 26.820312 39.082031 27.257812 39.082031 27.796875 L 39.082031 40.328125 C 39.082031 42.335938 38.527344 43.898438 37.441406 44.972656 C 36.140625 46.257812 34.039062 46.886719 31.203125 46.855469 C 31.199219 46.855469 31.191406 46.855469 31.1875 46.855469 L 9.980469 46.855469 C 10.96875 45.679688 11.628906 43.992188 11.628906 41.828125 L 11.628906 39.441406 C 11.628906 39.441406 11.628906 39.4375 11.628906 39.4375 L 11.628906 8.324219 C 11.628906 4.976562 13.367188 3.222656 15.085938 3.222656 L 40.597656 3.222656 C 39.691406 4.398438 39.082031 6.085938 39.082031 8.25 L 39.082031 20 C 39.082031 20.539062 39.515625 20.976562 40.058594 20.976562 C 40.597656 20.976562 41.035156 20.539062 41.035156 20 L 41.035156 11.589844 L 48.910156 11.589844 C 49.449219 11.585938 49.882812 11.148438 49.882812 10.609375 C 49.878906 7.742188 49.316406 5.355469 48.253906 3.707031 Z M 6 46.855469 C 5.996094 46.855469 5.996094 46.855469 5.992188 46.855469 C 4.074219 46.84375 2.140625 44.832031 1.882812 40.417969 L 9.675781 40.417969 L 9.675781 41.828125 C 9.675781 45.074219 7.804688 46.835938 6.035156 46.855469 Z M 41.035156 9.660156 L 41.035156 8.25 C 41.035156 5.003906 42.679688 3.242188 44.234375 3.222656 L 44.257812 3.222656 C 44.261719 3.222656 44.265625 3.222656 44.269531 3.222656 C 45.910156 3.230469 47.667969 5.265625 47.902344 9.660156 Z M 41.035156 9.660156 "/>
<path style=" stroke:none;fill-rule:nonzero;fill:rgb(0%,0%,0%);fill-opacity:1;" d="M 26.425781 6.628906 C 26.25 6.308594 25.910156 6.117188 25.542969 6.125 C 23.90625 6.175781 22.378906 6.847656 21.234375 8.023438 C 20.089844 9.203125 19.460938 10.757812 19.460938 12.402344 C 19.460938 15.863281 22.273438 18.679688 25.734375 18.679688 C 27.824219 18.679688 29.769531 17.648438 30.9375 15.914062 C 31.144531 15.609375 31.160156 15.210938 30.980469 14.886719 C 30.796875 14.566406 30.449219 14.375 30.082031 14.390625 C 30.042969 14.394531 30.003906 14.394531 29.964844 14.394531 C 27.582031 14.394531 25.644531 12.453125 25.644531 10.070312 C 25.644531 9.203125 25.898438 8.367188 26.382812 7.648438 C 26.585938 7.34375 26.605469 6.949219 26.425781 6.628906 Z M 28.058594 16.050781 C 27.375 16.488281 26.570312 16.726562 25.734375 16.726562 C 23.351562 16.726562 21.414062 14.785156 21.414062 12.402344 C 21.414062 10.660156 22.417969 9.167969 23.890625 8.480469 C 23.757812 8.996094 23.691406 9.527344 23.691406 10.070312 C 23.691406 12.867188 25.527344 15.242188 28.058594 16.050781 Z M 28.058594 16.050781 "/>
<path style=" stroke:none;fill-rule:nonzero;fill:rgb(0%,0%,0%);fill-opacity:1;" d="M 40.058594 22.902344 C 39.515625 22.902344 39.082031 23.339844 39.082031 23.878906 L 39.082031 23.898438 C 39.082031 24.4375 39.515625 24.875 40.058594 24.875 C 40.597656 24.875 41.035156 24.4375 41.035156 23.898438 L 41.035156 23.878906 C 41.035156 23.339844 40.597656 22.902344 40.058594 22.902344 Z M 40.058594 22.902344 "/>
<path style=" stroke:none;fill-rule:nonzero;fill:rgb(0%,0%,0%);fill-opacity:1;" d="M 34.554688 21.726562 L 16.191406 21.726562 C 15.652344 21.726562 15.214844 22.164062 15.214844 22.703125 C 15.214844 23.242188 15.652344 23.679688 16.191406 23.679688 L 34.554688 23.679688 C 35.097656 23.679688 35.535156 23.242188 35.535156 22.703125 C 35.535156 22.164062 35.097656 21.726562 34.554688 21.726562 Z M 34.554688 21.726562 "/>
<path style=" stroke:none;fill-rule:nonzero;fill:rgb(0%,0%,0%);fill-opacity:1;" d="M 34.554688 27.585938 L 16.191406 27.585938 C 15.652344 27.585938 15.214844 28.023438 15.214844 28.5625 C 15.214844 29.105469 15.652344 29.539062 16.191406 29.539062 L 34.554688 29.539062 C 35.097656 29.539062 35.535156 29.105469 35.535156 28.5625 C 35.535156 28.023438 35.097656 27.585938 34.554688 27.585938 Z M 34.554688 27.585938 "/>
<path style=" stroke:none;fill-rule:nonzero;fill:rgb(0%,0%,0%);fill-opacity:1;" d="M 34.554688 33.445312 L 16.191406 33.445312 C 15.652344 33.445312 15.214844 33.882812 15.214844 34.425781 C 15.214844 34.964844 15.652344 35.402344 16.191406 35.402344 L 34.554688 35.402344 C 35.097656 35.402344 35.535156 34.964844 35.535156 34.425781 C 35.535156 33.882812 35.097656 33.445312 34.554688 33.445312 Z M 34.554688 33.445312 "/>
<path style=" stroke:none;fill-rule:nonzero;fill:rgb(0%,0%,0%);fill-opacity:1;" d="M 34.554688 39.304688 L 16.191406 39.304688 C 15.652344 39.304688 15.214844 39.742188 15.214844 40.28125 C 15.214844 40.820312 15.652344 41.257812 16.191406 41.257812 L 34.554688 41.257812 C 35.097656 41.257812 35.535156 40.820312 35.535156 40.28125 C 35.535156 39.742188 35.097656 39.304688 34.554688 39.304688 Z M 34.554688 39.304688 "/>
</g>
</svg>
