<?xml version="1.0" encoding="UTF-8"?>
<svg xmlns="http://www.w3.org/2000/svg" xmlns:xlink="http://www.w3.org/1999/xlink" width="50px" height="50px" viewBox="0 0 50 50" version="1.1">
<g id="surface1">
<path style=" stroke:none;fill-rule:nonzero;fill:rgb(0%,0%,0%);fill-opacity:1;" d="M 13.039062 40.460938 L 11.5 40.734375 C 11.105469 40.804688 10.726562 40.539062 10.65625 40.140625 L 10.382812 38.601562 C 10.335938 38.304688 10.132812 38.050781 9.851562 37.949219 C 9.566406 37.84375 9.25 37.898438 9.019531 38.09375 C 8.789062 38.289062 8.683594 38.59375 8.742188 38.890625 L 9.011719 40.429688 C 9.21875 41.574219 10.210938 42.410156 11.375 42.410156 C 11.511719 42.410156 11.652344 42.398438 11.789062 42.375 L 13.328125 42.101562 C 13.621094 42.050781 13.867188 41.847656 13.96875 41.566406 C 14.070312 41.289062 14.015625 40.972656 13.824219 40.746094 C 13.632812 40.519531 13.332031 40.410156 13.039062 40.460938 Z M 13.039062 40.460938 "/>
<path style=" stroke:none;fill-rule:nonzero;fill:rgb(0%,0%,0%);fill-opacity:1;" d="M 29.128906 36.882812 L 28.859375 35.339844 C 28.804688 35.046875 28.601562 34.804688 28.320312 34.703125 C 28.042969 34.601562 27.730469 34.65625 27.5 34.847656 C 27.273438 35.039062 27.164062 35.339844 27.214844 35.632812 L 27.488281 37.171875 C 27.519531 37.363281 27.476562 37.558594 27.367188 37.714844 C 27.257812 37.875 27.085938 37.984375 26.894531 38.015625 L 25.355469 38.289062 C 24.933594 38.363281 24.636719 38.753906 24.675781 39.179688 C 24.710938 39.609375 25.070312 39.941406 25.5 39.941406 C 25.550781 39.941406 25.597656 39.9375 25.648438 39.929688 L 27.183594 39.65625 C 27.8125 39.546875 28.367188 39.191406 28.734375 38.671875 C 29.097656 38.152344 29.238281 37.507812 29.128906 36.882812 Z M 29.128906 36.882812 "/>
<path style=" stroke:none;fill-rule:nonzero;fill:rgb(0%,0%,0%);fill-opacity:1;" d="M 19.539062 5.292969 L 21.078125 5.019531 C 21.269531 4.984375 21.464844 5.027344 21.621094 5.140625 C 21.78125 5.25 21.890625 5.421875 21.921875 5.613281 L 22.195312 7.152344 C 22.265625 7.546875 22.609375 7.839844 23.011719 7.839844 C 23.0625 7.839844 23.109375 7.835938 23.160156 7.828125 C 23.378906 7.789062 23.570312 7.664062 23.699219 7.484375 C 23.824219 7.300781 23.875 7.078125 23.835938 6.859375 L 23.5625 5.324219 C 23.332031 4.019531 22.089844 3.152344 20.785156 3.378906 L 19.246094 3.648438 C 18.953125 3.699219 18.710938 3.90625 18.609375 4.183594 C 18.507812 4.464844 18.5625 4.777344 18.753906 5.007812 C 18.945312 5.234375 19.246094 5.34375 19.539062 5.292969 Z M 19.539062 5.292969 "/>
<path style=" stroke:none;fill-rule:nonzero;fill:rgb(0%,0%,0%);fill-opacity:1;" d="M 5.675781 7.738281 L 7.21875 7.46875 C 7.671875 7.386719 7.972656 6.957031 7.894531 6.503906 C 7.8125 6.050781 7.378906 5.746094 6.925781 5.828125 L 5.386719 6.097656 C 4.085938 6.328125 3.214844 7.570312 3.445312 8.875 L 3.714844 10.414062 C 3.785156 10.8125 4.132812 11.101562 4.535156 11.101562 C 4.585938 11.101562 4.632812 11.097656 4.679688 11.089844 C 4.898438 11.050781 5.09375 10.929688 5.21875 10.75 C 5.347656 10.566406 5.394531 10.34375 5.355469 10.125 L 5.085938 8.585938 C 5.050781 8.394531 5.09375 8.199219 5.207031 8.039062 C 5.316406 7.882812 5.488281 7.773438 5.675781 7.742188 Z M 5.675781 7.738281 "/>
<path style=" stroke:none;fill-rule:nonzero;fill:rgb(0%,0%,0%);fill-opacity:1;" d="M 18.242188 29.65625 C 18.460938 28.996094 18.480469 28.28125 18.292969 27.609375 C 18.667969 27.457031 19.027344 27.265625 19.359375 27.03125 C 19.664062 27.300781 19.867188 27.671875 19.929688 28.074219 C 20.363281 29.878906 21.546875 30.453125 22.175781 30.507812 C 22.203125 30.507812 22.226562 30.507812 22.25 30.507812 C 22.6875 30.507812 23.050781 30.179688 23.097656 29.746094 C 23.121094 29.53125 23.054688 29.3125 22.917969 29.140625 C 22.777344 28.972656 22.578125 28.867188 22.359375 28.847656 C 22.335938 28.84375 21.800781 28.726562 21.550781 27.679688 C 21.410156 26.996094 21.070312 26.367188 20.570312 25.875 C 20.628906 25.800781 20.691406 25.730469 20.742188 25.652344 C 20.921875 25.398438 21.074219 25.128906 21.207031 24.847656 C 21.605469 24.929688 21.96875 25.144531 22.226562 25.464844 C 22.808594 26.15625 23.660156 26.574219 24.566406 26.613281 C 24.847656 26.613281 25.128906 26.558594 25.386719 26.445312 C 25.804688 26.25 25.992188 25.753906 25.800781 25.328125 C 25.714844 25.128906 25.546875 24.972656 25.34375 24.894531 C 25.136719 24.816406 24.910156 24.828125 24.710938 24.917969 C 24.691406 24.929688 24.171875 25.09375 23.433594 24.3125 C 22.96875 23.792969 22.359375 23.417969 21.679688 23.246094 C 21.738281 22.84375 21.75 22.4375 21.714844 22.035156 C 22.101562 21.902344 22.523438 21.914062 22.902344 22.058594 C 24.683594 22.585938 25.769531 21.847656 26.132812 21.328125 C 26.398438 20.949219 26.3125 20.425781 25.9375 20.152344 C 25.761719 20.023438 25.539062 19.972656 25.324219 20.007812 C 25.105469 20.042969 24.914062 20.164062 24.789062 20.34375 C 24.773438 20.363281 24.40625 20.765625 23.378906 20.460938 C 22.714844 20.242188 22.003906 20.222656 21.328125 20.40625 C 21.175781 20.03125 20.984375 19.675781 20.75 19.34375 C 21.019531 19.039062 21.390625 18.832031 21.792969 18.769531 C 23.597656 18.339844 24.171875 17.15625 24.226562 16.523438 C 24.269531 16.0625 23.933594 15.652344 23.472656 15.605469 C 23.253906 15.582031 23.035156 15.648438 22.867188 15.785156 C 22.699219 15.925781 22.589844 16.125 22.570312 16.34375 C 22.570312 16.367188 22.453125 16.898438 21.402344 17.148438 C 20.71875 17.289062 20.089844 17.632812 19.597656 18.132812 C 19.28125 17.882812 18.9375 17.671875 18.570312 17.496094 C 18.652344 17.09375 18.867188 16.734375 19.1875 16.476562 C 20.535156 15.203125 20.4375 13.894531 20.171875 13.316406 C 19.976562 12.894531 19.480469 12.710938 19.054688 12.898438 C 18.855469 12.988281 18.699219 13.152344 18.621094 13.359375 C 18.546875 13.5625 18.554688 13.792969 18.644531 13.988281 C 18.652344 14.011719 18.824219 14.53125 18.042969 15.269531 C 17.519531 15.734375 17.144531 16.34375 16.972656 17.019531 C 16.570312 16.964844 16.164062 16.953125 15.761719 16.984375 C 15.636719 16.597656 15.648438 16.179688 15.796875 15.804688 C 16.324219 14.027344 15.585938 12.9375 15.066406 12.574219 C 14.6875 12.308594 14.164062 12.394531 13.890625 12.765625 C 13.761719 12.945312 13.707031 13.164062 13.746094 13.382812 C 13.78125 13.597656 13.902344 13.789062 14.082031 13.917969 C 14.097656 13.933594 14.503906 14.296875 14.195312 15.328125 C 13.976562 15.992188 13.957031 16.703125 14.144531 17.375 C 13.769531 17.527344 13.410156 17.722656 13.078125 17.953125 C 12.773438 17.683594 12.570312 17.316406 12.507812 16.910156 C 12.074219 15.109375 10.890625 14.535156 10.261719 14.480469 C 9.800781 14.4375 9.390625 14.773438 9.339844 15.234375 C 9.316406 15.453125 9.382812 15.671875 9.519531 15.839844 C 9.660156 16.007812 9.859375 16.117188 10.078125 16.132812 C 10.101562 16.132812 10.636719 16.253906 10.886719 17.300781 C 11.027344 17.984375 11.371094 18.613281 11.867188 19.101562 C 11.8125 19.175781 11.75 19.246094 11.695312 19.324219 C 11.519531 19.578125 11.363281 19.847656 11.234375 20.128906 C 10.832031 20.050781 10.472656 19.832031 10.214844 19.515625 C 8.941406 18.167969 7.628906 18.265625 7.054688 18.53125 C 6.632812 18.726562 6.449219 19.222656 6.636719 19.644531 C 6.726562 19.84375 6.890625 20 7.097656 20.078125 C 7.300781 20.15625 7.527344 20.148438 7.726562 20.054688 C 7.75 20.046875 8.269531 19.882812 9.007812 20.660156 C 9.472656 21.183594 10.082031 21.554688 10.757812 21.734375 C 10.703125 22.132812 10.691406 22.539062 10.722656 22.941406 C 10.335938 23.070312 9.917969 23.0625 9.539062 22.914062 C 7.761719 22.386719 6.671875 23.125 6.308594 23.644531 C 6.125 23.898438 6.101562 24.230469 6.242188 24.511719 C 6.382812 24.789062 6.667969 24.96875 6.980469 24.972656 C 7.246094 24.972656 7.492188 24.84375 7.640625 24.625 C 7.65625 24.609375 8.023438 24.207031 9.054688 24.511719 C 9.714844 24.730469 10.429688 24.75 11.101562 24.5625 C 11.253906 24.9375 11.445312 25.296875 11.679688 25.628906 C 11.410156 25.933594 11.039062 26.136719 10.636719 26.203125 C 8.835938 26.632812 8.261719 27.816406 8.203125 28.445312 C 8.160156 28.910156 8.496094 29.320312 8.960938 29.367188 L 9.035156 29.367188 C 9.464844 29.375 9.824219 29.050781 9.859375 28.625 C 9.863281 28.601562 9.976562 28.070312 11.027344 27.820312 C 11.710938 27.679688 12.339844 27.335938 12.832031 26.835938 C 12.90625 26.894531 12.976562 26.957031 13.054688 27.011719 C 13.308594 27.1875 13.578125 27.34375 13.859375 27.472656 C 13.78125 27.875 13.5625 28.234375 13.242188 28.492188 C 11.898438 29.765625 11.992188 31.074219 12.257812 31.652344 C 12.398438 31.953125 12.703125 32.144531 13.035156 32.148438 C 13.152344 32.148438 13.269531 32.121094 13.375 32.074219 C 13.574219 31.984375 13.730469 31.820312 13.808594 31.613281 C 13.886719 31.410156 13.875 31.179688 13.785156 30.980469 C 13.777344 30.960938 13.609375 30.441406 14.390625 29.703125 C 14.910156 29.238281 15.285156 28.628906 15.460938 27.953125 C 15.707031 27.988281 15.960938 28.007812 16.210938 28.007812 C 16.359375 28.007812 16.511719 27.980469 16.664062 27.96875 C 16.800781 28.359375 16.796875 28.789062 16.644531 29.171875 C 16.117188 30.953125 16.855469 32.039062 17.375 32.402344 C 17.519531 32.503906 17.691406 32.558594 17.867188 32.558594 C 18.136719 32.558594 18.390625 32.429688 18.550781 32.210938 C 18.679688 32.035156 18.730469 31.8125 18.695312 31.59375 C 18.660156 31.378906 18.539062 31.1875 18.359375 31.058594 C 18.339844 31.050781 17.933594 30.6875 18.242188 29.65625 Z M 12.425781 23.179688 C 12.425781 23.164062 12.425781 23.148438 12.417969 23.132812 C 12.128906 21.421875 13.019531 19.726562 14.59375 18.992188 C 16.167969 18.261719 18.035156 18.671875 19.160156 20 C 19.167969 20.007812 19.171875 20.019531 19.183594 20.03125 C 19.609375 20.539062 19.894531 21.152344 20.015625 21.804688 C 20.015625 21.820312 20.015625 21.835938 20.023438 21.847656 C 20.371094 23.929688 18.984375 25.90625 16.90625 26.285156 L 16.867188 26.292969 C 14.785156 26.644531 12.804688 25.257812 12.425781 23.179688 Z M 12.425781 23.179688 "/>
<path style=" stroke:none;fill-rule:nonzero;fill:rgb(0%,0%,0%);fill-opacity:1;" d="M 46.640625 8.066406 L 28.929688 4.757812 C 28.171875 4.613281 27.390625 4.683594 26.671875 4.960938 L 26.402344 3.445312 C 26.210938 2.355469 25.59375 1.386719 24.6875 0.753906 C 23.785156 0.121094 22.664062 -0.128906 21.574219 0.0625 L 3.507812 3.25 C 2.421875 3.445312 1.453125 4.0625 0.820312 4.964844 C 0.1875 5.871094 -0.0625 6.992188 0.128906 8.082031 L 6.171875 42.308594 C 6.523438 44.296875 8.246094 45.75 10.265625 45.753906 C 10.511719 45.753906 10.757812 45.734375 11 45.691406 L 18.183594 44.421875 C 18.769531 45.558594 19.847656 46.359375 21.101562 46.597656 L 38.820312 49.90625 C 39.078125 49.957031 39.339844 49.980469 39.601562 49.980469 C 41.605469 49.972656 43.316406 48.542969 43.679688 46.574219 L 49.972656 12.933594 C 50.175781 11.847656 49.941406 10.722656 49.316406 9.808594 C 48.691406 8.894531 47.726562 8.269531 46.640625 8.066406 Z M 31.988281 35.085938 L 31.691406 33.417969 C 33.636719 32.492188 35.082031 30.761719 35.65625 28.6875 C 36.226562 26.609375 35.871094 24.386719 34.679688 22.589844 C 33.878906 21.382812 32.730469 20.449219 31.382812 19.910156 C 32.207031 19.773438 33.046875 19.785156 33.871094 19.9375 C 37.757812 20.765625 40.367188 24.429688 39.875 28.375 C 39.386719 32.320312 35.960938 35.238281 31.988281 35.089844 Z M 29.746094 21.15625 C 31.199219 21.429688 32.476562 22.28125 33.289062 23.515625 C 34.167969 24.839844 34.460938 26.46875 34.101562 28.015625 C 33.742188 29.5625 32.757812 30.894531 31.386719 31.695312 L 29.523438 21.128906 C 29.597656 21.136719 29.671875 21.144531 29.746094 21.15625 Z M 10.710938 44.046875 C 9.351562 44.289062 8.050781 43.378906 7.8125 42.019531 L 1.769531 7.789062 C 1.53125 6.429688 2.441406 5.132812 3.800781 4.894531 L 21.863281 1.707031 C 22.007812 1.679688 22.15625 1.667969 22.304688 1.667969 C 23.515625 1.667969 24.550781 2.539062 24.761719 3.734375 L 30.800781 37.960938 C 30.917969 38.617188 30.769531 39.289062 30.386719 39.832031 C 30.007812 40.375 29.425781 40.746094 28.773438 40.859375 Z M 48.332031 12.625 L 42.042969 46.269531 C 41.925781 46.921875 41.550781 47.5 41.003906 47.875 C 40.457031 48.253906 39.785156 48.394531 39.132812 48.269531 L 21.410156 44.960938 C 20.851562 44.847656 20.347656 44.546875 19.988281 44.105469 L 22.503906 43.664062 C 22.644531 43.722656 22.792969 43.769531 22.945312 43.800781 L 24.464844 44.082031 C 24.515625 44.09375 24.566406 44.097656 24.617188 44.097656 C 25.019531 44.097656 25.363281 43.808594 25.4375 43.417969 C 25.453125 43.328125 25.453125 43.234375 25.4375 43.144531 L 29.070312 42.503906 C 31.335938 42.101562 32.847656 39.941406 32.449219 37.675781 L 32.289062 36.765625 C 32.34375 36.765625 32.398438 36.777344 32.457031 36.777344 C 37.207031 36.683594 41.125 33.039062 41.570312 28.308594 C 42.011719 23.582031 38.835938 19.273438 34.1875 18.296875 C 32.484375 17.984375 30.726562 18.171875 29.128906 18.835938 L 27.960938 12.210938 C 28.097656 12.089844 28.191406 11.929688 28.226562 11.753906 L 28.507812 10.234375 C 28.582031 9.851562 28.953125 9.597656 29.335938 9.667969 L 30.855469 9.953125 C 31.304688 10.03125 31.738281 9.734375 31.820312 9.285156 C 31.90625 8.832031 31.609375 8.398438 31.160156 8.3125 L 29.644531 8.03125 C 28.789062 7.871094 27.917969 8.195312 27.371094 8.871094 L 26.984375 6.664062 C 27.480469 6.386719 28.0625 6.292969 28.625 6.394531 L 46.335938 9.703125 C 46.988281 9.828125 47.5625 10.203125 47.941406 10.75 C 48.316406 11.296875 48.457031 11.96875 48.335938 12.621094 Z M 48.332031 12.625 "/>
<path style=" stroke:none;fill-rule:nonzero;fill:rgb(0%,0%,0%);fill-opacity:1;" d="M 40.503906 42.246094 C 40.050781 42.160156 39.617188 42.460938 39.53125 42.914062 L 39.246094 44.429688 C 39.175781 44.8125 38.804688 45.066406 38.421875 44.996094 L 36.902344 44.714844 C 36.453125 44.632812 36.019531 44.929688 35.933594 45.378906 C 35.851562 45.832031 36.148438 46.265625 36.597656 46.351562 L 38.113281 46.636719 C 38.257812 46.664062 38.40625 46.675781 38.554688 46.675781 C 39.699219 46.675781 40.679688 45.859375 40.890625 44.734375 L 41.171875 43.21875 C 41.214844 43 41.167969 42.777344 41.039062 42.59375 C 40.914062 42.410156 40.722656 42.285156 40.503906 42.246094 Z M 40.503906 42.246094 "/>
<path style=" stroke:none;fill-rule:nonzero;fill:rgb(0%,0%,0%);fill-opacity:1;" d="M 44.800781 10.863281 L 43.285156 10.578125 C 42.832031 10.496094 42.402344 10.796875 42.316406 11.246094 C 42.234375 11.695312 42.527344 12.132812 42.976562 12.21875 L 44.496094 12.5 C 44.878906 12.574219 45.132812 12.945312 45.0625 13.328125 L 44.777344 14.847656 C 44.738281 15.0625 44.785156 15.289062 44.910156 15.472656 C 45.035156 15.652344 45.226562 15.777344 45.445312 15.820312 C 45.496094 15.828125 45.546875 15.832031 45.597656 15.835938 C 46 15.832031 46.34375 15.546875 46.417969 15.152344 L 46.703125 13.636719 C 46.941406 12.347656 46.089844 11.105469 44.800781 10.863281 Z M 44.800781 10.863281 "/>
<path style=" stroke:none;fill-rule:nonzero;fill:rgb(0%,0%,0%);fill-opacity:1;" d="M 40.136719 14.828125 C 40.1875 14.835938 40.238281 14.839844 40.289062 14.839844 C 40.691406 14.839844 41.035156 14.554688 41.109375 14.160156 L 41.25 13.402344 C 41.332031 12.949219 41.03125 12.519531 40.582031 12.433594 C 40.132812 12.351562 39.699219 12.644531 39.609375 13.09375 L 39.46875 13.855469 C 39.429688 14.070312 39.476562 14.296875 39.601562 14.480469 C 39.726562 14.660156 39.917969 14.785156 40.136719 14.828125 Z M 40.136719 14.828125 "/>
<path style=" stroke:none;fill-rule:nonzero;fill:rgb(0%,0%,0%);fill-opacity:1;" d="M 39.308594 15.394531 C 39.347656 15.175781 39.300781 14.953125 39.175781 14.769531 C 39.050781 14.585938 38.859375 14.460938 38.640625 14.421875 L 37.882812 14.28125 C 37.589844 14.222656 37.289062 14.328125 37.09375 14.554688 C 36.898438 14.78125 36.839844 15.09375 36.9375 15.375 C 37.039062 15.660156 37.28125 15.863281 37.578125 15.917969 L 38.335938 16.058594 C 38.386719 16.070312 38.4375 16.074219 38.488281 16.074219 C 38.890625 16.074219 39.234375 15.789062 39.308594 15.394531 Z M 39.308594 15.394531 "/>
<path style=" stroke:none;fill-rule:nonzero;fill:rgb(0%,0%,0%);fill-opacity:1;" d="M 39.875 16.21875 C 39.65625 16.179688 39.433594 16.226562 39.25 16.351562 C 39.070312 16.476562 38.945312 16.671875 38.902344 16.886719 L 38.761719 17.644531 C 38.71875 17.863281 38.765625 18.085938 38.890625 18.269531 C 39.015625 18.453125 39.210938 18.578125 39.425781 18.617188 C 39.476562 18.628906 39.53125 18.632812 39.582031 18.632812 C 39.984375 18.632812 40.328125 18.347656 40.398438 17.953125 L 40.542969 17.195312 C 40.582031 16.976562 40.535156 16.75 40.410156 16.570312 C 40.285156 16.386719 40.09375 16.261719 39.875 16.21875 Z M 39.875 16.21875 "/>
<path style=" stroke:none;fill-rule:nonzero;fill:rgb(0%,0%,0%);fill-opacity:1;" d="M 42.433594 15.128906 L 41.675781 14.988281 C 41.222656 14.90625 40.792969 15.207031 40.707031 15.65625 C 40.625 16.105469 40.917969 16.539062 41.367188 16.628906 L 42.128906 16.769531 C 42.179688 16.777344 42.230469 16.78125 42.28125 16.785156 C 42.710938 16.78125 43.070312 16.453125 43.109375 16.027344 C 43.148438 15.597656 42.855469 15.210938 42.433594 15.128906 Z M 42.433594 15.128906 "/>
<path style=" stroke:none;fill-rule:nonzero;fill:rgb(0%,0%,0%);fill-opacity:1;" d="M 10.695312 10.011719 C 10.742188 10.011719 10.789062 10.007812 10.839844 10 C 11.058594 9.960938 11.25 9.839844 11.378906 9.65625 C 11.503906 9.476562 11.554688 9.253906 11.515625 9.035156 L 11.378906 8.265625 C 11.289062 7.824219 10.863281 7.53125 10.417969 7.609375 C 9.972656 7.6875 9.671875 8.109375 9.738281 8.554688 L 9.875 9.324219 C 9.945312 9.722656 10.289062 10.011719 10.695312 10.011719 Z M 10.695312 10.011719 "/>
<path style=" stroke:none;fill-rule:nonzero;fill:rgb(0%,0%,0%);fill-opacity:1;" d="M 8.65625 11.960938 C 8.707031 11.960938 8.753906 11.957031 8.800781 11.949219 L 9.570312 11.8125 C 9.863281 11.761719 10.109375 11.554688 10.210938 11.277344 C 10.3125 10.996094 10.257812 10.683594 10.066406 10.457031 C 9.875 10.226562 9.574219 10.117188 9.28125 10.171875 L 8.511719 10.304688 C 8.085938 10.378906 7.789062 10.769531 7.824219 11.199219 C 7.863281 11.628906 8.222656 11.960938 8.65625 11.960938 Z M 8.65625 11.960938 "/>
<path style=" stroke:none;fill-rule:nonzero;fill:rgb(0%,0%,0%);fill-opacity:1;" d="M 11.09375 11.4375 C 10.875 11.476562 10.683594 11.597656 10.554688 11.78125 C 10.429688 11.960938 10.378906 12.1875 10.417969 12.402344 L 10.554688 13.171875 C 10.625 13.570312 10.96875 13.863281 11.375 13.863281 C 11.421875 13.863281 11.472656 13.859375 11.519531 13.847656 C 11.972656 13.769531 12.273438 13.335938 12.195312 12.882812 L 12.058594 12.113281 C 12.019531 11.894531 11.898438 11.703125 11.714844 11.574219 C 11.535156 11.449219 11.3125 11.398438 11.09375 11.4375 Z M 11.09375 11.4375 "/>
<path style=" stroke:none;fill-rule:nonzero;fill:rgb(0%,0%,0%);fill-opacity:1;" d="M 12.503906 11.28125 C 12.554688 11.28125 12.601562 11.277344 12.648438 11.269531 L 13.421875 11.132812 C 13.714844 11.082031 13.957031 10.875 14.058594 10.597656 C 14.160156 10.316406 14.105469 10.003906 13.914062 9.777344 C 13.722656 9.546875 13.425781 9.4375 13.132812 9.492188 L 12.363281 9.625 C 11.9375 9.703125 11.636719 10.089844 11.675781 10.519531 C 11.710938 10.949219 12.074219 11.28125 12.503906 11.28125 Z M 12.503906 11.28125 "/>
<path style=" stroke:none;fill-rule:nonzero;fill:rgb(0%,0%,0%);fill-opacity:1;" d="M 21.824219 31.769531 C 21.605469 31.804688 21.414062 31.929688 21.285156 32.109375 C 21.160156 32.292969 21.109375 32.515625 21.148438 32.734375 L 21.285156 33.503906 C 21.355469 33.902344 21.699219 34.191406 22.105469 34.191406 C 22.152344 34.191406 22.203125 34.1875 22.25 34.179688 C 22.703125 34.097656 23.003906 33.667969 22.925781 33.214844 L 22.789062 32.445312 C 22.710938 31.992188 22.277344 31.6875 21.824219 31.769531 Z M 21.824219 31.769531 "/>
<path style=" stroke:none;fill-rule:nonzero;fill:rgb(0%,0%,0%);fill-opacity:1;" d="M 20.691406 34.347656 L 19.921875 34.484375 C 19.5 34.5625 19.203125 34.949219 19.242188 35.378906 C 19.277344 35.808594 19.636719 36.136719 20.066406 36.140625 C 20.117188 36.140625 20.164062 36.136719 20.210938 36.125 L 20.980469 35.992188 C 21.425781 35.902344 21.714844 35.472656 21.636719 35.027344 C 21.558594 34.582031 21.140625 34.28125 20.691406 34.347656 Z M 20.691406 34.347656 "/>
<path style=" stroke:none;fill-rule:nonzero;fill:rgb(0%,0%,0%);fill-opacity:1;" d="M 22.503906 35.617188 C 22.050781 35.695312 21.746094 36.128906 21.828125 36.582031 L 21.964844 37.351562 C 22.035156 37.75 22.378906 38.039062 22.785156 38.039062 C 22.832031 38.039062 22.882812 38.035156 22.929688 38.027344 C 23.148438 37.988281 23.34375 37.867188 23.46875 37.683594 C 23.59375 37.503906 23.644531 37.277344 23.605469 37.058594 L 23.46875 36.289062 C 23.386719 35.835938 22.957031 35.535156 22.503906 35.617188 Z M 22.503906 35.617188 "/>
<path style=" stroke:none;fill-rule:nonzero;fill:rgb(0%,0%,0%);fill-opacity:1;" d="M 25.507812 34.347656 C 25.46875 34.128906 25.34375 33.933594 25.164062 33.808594 C 24.984375 33.679688 24.757812 33.632812 24.542969 33.667969 L 23.769531 33.804688 C 23.34375 33.878906 23.046875 34.269531 23.085938 34.699219 C 23.121094 35.128906 23.484375 35.460938 23.914062 35.460938 C 23.964844 35.460938 24.011719 35.457031 24.0625 35.445312 L 24.832031 35.3125 C 25.046875 35.273438 25.242188 35.148438 25.367188 34.96875 C 25.496094 34.789062 25.546875 34.5625 25.507812 34.347656 Z M 25.507812 34.347656 "/>
<path style=" stroke:none;fill-rule:nonzero;fill:rgb(0%,0%,0%);fill-opacity:1;" d="M 35.457031 39.859375 C 35.507812 39.867188 35.558594 39.871094 35.613281 39.871094 C 36.011719 39.871094 36.355469 39.585938 36.429688 39.191406 L 36.570312 38.433594 C 36.652344 37.980469 36.355469 37.550781 35.90625 37.464844 C 35.453125 37.382812 35.019531 37.675781 34.933594 38.125 L 34.792969 38.886719 C 34.75 39.101562 34.796875 39.328125 34.921875 39.511719 C 35.046875 39.691406 35.242188 39.816406 35.457031 39.859375 Z M 35.457031 39.859375 "/>
<path style=" stroke:none;fill-rule:nonzero;fill:rgb(0%,0%,0%);fill-opacity:1;" d="M 34.625 40.425781 C 34.707031 39.972656 34.410156 39.539062 33.957031 39.453125 L 33.199219 39.3125 C 32.753906 39.242188 32.335938 39.539062 32.253906 39.980469 C 32.171875 40.425781 32.453125 40.851562 32.894531 40.949219 L 33.652344 41.089844 C 33.703125 41.101562 33.753906 41.105469 33.804688 41.105469 C 34.207031 41.105469 34.550781 40.820312 34.625 40.425781 Z M 34.625 40.425781 "/>
<path style=" stroke:none;fill-rule:nonzero;fill:rgb(0%,0%,0%);fill-opacity:1;" d="M 35.195312 41.253906 C 34.976562 41.210938 34.753906 41.261719 34.570312 41.386719 C 34.386719 41.511719 34.261719 41.703125 34.222656 41.921875 L 34.082031 42.679688 C 34.039062 42.894531 34.085938 43.121094 34.210938 43.304688 C 34.335938 43.484375 34.53125 43.609375 34.746094 43.652344 C 34.796875 43.660156 34.847656 43.664062 34.902344 43.664062 C 35.300781 43.664062 35.644531 43.378906 35.71875 42.984375 L 35.863281 42.226562 C 35.902344 42.007812 35.855469 41.785156 35.730469 41.601562 C 35.605469 41.417969 35.414062 41.292969 35.195312 41.253906 Z M 35.195312 41.253906 "/>
<path style=" stroke:none;fill-rule:nonzero;fill:rgb(0%,0%,0%);fill-opacity:1;" d="M 36.023438 40.6875 C 35.9375 41.140625 36.238281 41.574219 36.691406 41.660156 L 37.449219 41.800781 C 37.5 41.808594 37.550781 41.816406 37.601562 41.8125 C 38.03125 41.8125 38.390625 41.484375 38.429688 41.058594 C 38.472656 40.628906 38.175781 40.242188 37.753906 40.160156 L 36.996094 40.019531 C 36.777344 39.980469 36.554688 40.027344 36.371094 40.152344 C 36.1875 40.277344 36.0625 40.46875 36.023438 40.6875 Z M 36.023438 40.6875 "/>
</g>
</svg>
