<?xml version="1.0" encoding="UTF-8"?>
<svg xmlns="http://www.w3.org/2000/svg" xmlns:xlink="http://www.w3.org/1999/xlink" width="50px" height="50px" viewBox="0 0 50 50" version="1.1">
<g id="surface1">
<path style=" stroke:none;fill-rule:nonzero;fill:rgb(0%,0%,0%);fill-opacity:1;" d="M 47.257812 1.367188 L 40.535156 1.367188 C 39.992188 1.367188 39.554688 1.808594 39.554688 2.351562 C 39.554688 2.894531 39.992188 3.332031 40.535156 3.332031 L 47.257812 3.332031 C 47.6875 3.332031 48.035156 3.679688 48.035156 4.109375 L 48.035156 33.289062 C 48.035156 33.714844 47.6875 34.0625 47.257812 34.0625 L 36.78125 34.0625 L 36.210938 32.929688 L 43.679688 32.929688 C 44.222656 32.929688 44.660156 32.488281 44.660156 31.945312 C 44.660156 31.101562 45.351562 30.410156 46.199219 30.410156 C 46.742188 30.410156 47.183594 29.96875 47.183594 29.425781 L 47.183594 7.96875 C 47.183594 7.425781 46.742188 6.984375 46.199219 6.984375 C 45.351562 6.984375 44.660156 6.296875 44.660156 5.449219 C 44.660156 4.90625 44.222656 4.464844 43.679688 4.464844 L 29.574219 4.464844 C 29.03125 4.464844 28.589844 4.90625 28.589844 5.449219 C 28.589844 6.296875 27.898438 6.984375 27.050781 6.984375 C 26.507812 6.984375 26.070312 7.425781 26.070312 7.96875 L 26.070312 12.777344 L 25.21875 11.085938 L 25.21875 4.109375 C 25.21875 3.679688 25.566406 3.332031 25.992188 3.332031 L 32.675781 3.332031 C 33.21875 3.332031 33.660156 2.894531 33.660156 2.351562 C 33.660156 1.808594 33.21875 1.367188 32.675781 1.367188 L 25.992188 1.367188 C 24.480469 1.367188 23.25 2.597656 23.25 4.109375 L 23.25 7.992188 C 22.457031 7.46875 21.414062 7.371094 20.503906 7.828125 L 1.507812 17.371094 C 0.160156 18.050781 -0.386719 19.703125 0.292969 21.054688 L 13.410156 47.121094 C 13.894531 48.078125 14.863281 48.632812 15.867188 48.632812 C 16.28125 48.632812 16.703125 48.539062 17.09375 48.339844 L 36.089844 38.792969 C 36.742188 38.464844 37.230469 37.902344 37.460938 37.207031 C 37.589844 36.820312 37.628906 36.417969 37.582031 36.027344 L 47.257812 36.027344 C 48.769531 36.027344 50 34.796875 50 33.289062 L 50 4.109375 C 50 2.597656 48.769531 1.367188 47.257812 1.367188 Z M 28.035156 8.808594 C 29.175781 8.476562 30.078125 7.574219 30.414062 6.429688 L 42.835938 6.429688 C 43.171875 7.574219 44.074219 8.476562 45.21875 8.808594 L 45.21875 28.585938 C 44.074219 28.917969 43.171875 29.820312 42.835938 30.964844 L 35.21875 30.964844 L 28.035156 16.683594 Z M 35.59375 36.589844 C 35.527344 36.785156 35.390625 36.945312 35.207031 37.039062 L 16.210938 46.585938 C 15.835938 46.773438 15.355469 46.617188 15.167969 46.238281 L 2.046875 20.171875 C 1.855469 19.789062 2.007812 19.320312 2.390625 19.128906 L 21.386719 9.585938 C 21.765625 9.394531 22.242188 9.550781 22.433594 9.929688 L 35.554688 35.996094 C 35.644531 36.179688 35.660156 36.390625 35.59375 36.589844 Z M 35.59375 36.589844 "/>
<path style=" stroke:none;fill-rule:nonzero;fill:rgb(0%,0%,0%);fill-opacity:1;" d="M 23.40625 13.757812 C 23.160156 13.273438 22.570312 13.078125 22.085938 13.320312 C 21.71875 13.503906 21.304688 13.535156 20.914062 13.40625 C 20.523438 13.277344 20.207031 13.003906 20.023438 12.640625 C 19.777344 12.15625 19.1875 11.960938 18.703125 12.203125 L 6.101562 18.539062 C 5.867188 18.652344 5.691406 18.859375 5.609375 19.105469 C 5.527344 19.355469 5.546875 19.625 5.664062 19.855469 C 6.042969 20.613281 5.738281 21.539062 4.980469 21.917969 C 4.75 22.035156 4.570312 22.238281 4.488281 22.488281 C 4.40625 22.734375 4.425781 23.003906 4.542969 23.238281 L 14.195312 42.410156 C 14.4375 42.894531 15.027344 43.089844 15.511719 42.847656 C 16.273438 42.464844 17.199219 42.769531 17.578125 43.527344 C 17.75 43.871094 18.097656 44.066406 18.457031 44.066406 C 18.605469 44.066406 18.753906 44.035156 18.898438 43.964844 L 31.5 37.628906 C 31.734375 37.511719 31.910156 37.308594 31.992188 37.058594 C 32.074219 36.8125 32.054688 36.542969 31.9375 36.308594 C 31.753906 35.945312 31.722656 35.53125 31.851562 35.140625 C 31.980469 34.75 32.253906 34.433594 32.621094 34.25 C 32.855469 34.132812 33.03125 33.925781 33.113281 33.679688 C 33.195312 33.433594 33.175781 33.160156 33.058594 32.929688 Z M 29.984375 34.523438 C 29.796875 35.089844 29.757812 35.679688 29.863281 36.25 L 18.765625 41.828125 C 18.097656 41.113281 17.164062 40.71875 16.199219 40.71875 C 15.992188 40.71875 15.78125 40.734375 15.570312 40.773438 L 6.679688 23.105469 C 7.546875 22.296875 7.949219 21.085938 7.734375 19.914062 L 18.832031 14.339844 C 19.230469 14.765625 19.726562 15.085938 20.296875 15.273438 C 20.863281 15.460938 21.457031 15.5 22.027344 15.394531 L 30.921875 33.058594 C 30.496094 33.453125 30.171875 33.953125 29.984375 34.523438 Z M 29.984375 34.523438 "/>
<path style=" stroke:none;fill-rule:nonzero;fill:rgb(0%,0%,0%);fill-opacity:1;" d="M 21.660156 22.390625 L 19.085938 23.101562 L 16.613281 22.097656 C 16.351562 21.992188 16.054688 22.003906 15.800781 22.128906 C 15.550781 22.257812 15.363281 22.488281 15.292969 22.761719 L 14.625 25.339844 L 12.519531 26.980469 C 12.296875 27.15625 12.15625 27.417969 12.140625 27.699219 C 12.125 27.980469 12.234375 28.257812 12.433594 28.457031 L 14.335938 30.328125 L 14.703125 32.96875 C 14.742188 33.25 14.902344 33.5 15.136719 33.65625 C 15.375 33.808594 15.667969 33.855469 15.941406 33.78125 L 18.511719 33.066406 L 20.988281 34.070312 C 21.105469 34.117188 21.230469 34.140625 21.355469 34.140625 C 21.507812 34.140625 21.660156 34.105469 21.796875 34.039062 C 22.050781 33.910156 22.234375 33.679688 22.308594 33.40625 L 22.976562 30.824219 L 25.082031 29.1875 C 25.304688 29.011719 25.441406 28.75 25.457031 28.46875 C 25.472656 28.183594 25.367188 27.910156 25.164062 27.710938 L 23.261719 25.839844 L 22.894531 23.199219 C 22.855469 22.921875 22.699219 22.671875 22.460938 22.515625 C 22.226562 22.359375 21.933594 22.3125 21.660156 22.390625 Z M 22.988281 28.324219 L 21.503906 29.480469 C 21.335938 29.613281 21.210938 29.800781 21.15625 30.007812 L 20.6875 31.828125 L 18.941406 31.121094 C 18.824219 31.070312 18.699219 31.046875 18.574219 31.046875 C 18.484375 31.046875 18.394531 31.058594 18.308594 31.082031 L 16.496094 31.585938 L 16.238281 29.722656 C 16.207031 29.507812 16.109375 29.3125 15.953125 29.160156 L 14.613281 27.839844 L 16.09375 26.6875 C 16.265625 26.554688 16.386719 26.367188 16.441406 26.15625 L 16.914062 24.339844 L 18.65625 25.046875 C 18.859375 25.128906 19.082031 25.140625 19.289062 25.082031 L 21.101562 24.582031 L 21.363281 26.441406 C 21.390625 26.65625 21.492188 26.855469 21.644531 27.007812 Z M 22.988281 28.324219 "/>
<path style=" stroke:none;fill-rule:nonzero;fill:rgb(0%,0%,0%);fill-opacity:1;" d="M 10.53125 21.972656 L 10.527344 21.976562 C 10.042969 22.222656 9.851562 22.8125 10.09375 23.296875 C 10.269531 23.636719 10.613281 23.835938 10.976562 23.835938 C 11.125 23.835938 11.277344 23.800781 11.417969 23.730469 C 11.902344 23.484375 12.097656 22.894531 11.851562 22.410156 C 11.609375 21.925781 11.019531 21.730469 10.53125 21.972656 Z M 10.53125 21.972656 "/>
<path style=" stroke:none;fill-rule:nonzero;fill:rgb(0%,0%,0%);fill-opacity:1;" d="M 19.265625 19.667969 C 19.414062 19.667969 19.566406 19.632812 19.710938 19.5625 C 20.195312 19.320312 20.390625 18.726562 20.144531 18.242188 C 19.898438 17.757812 19.308594 17.5625 18.824219 17.808594 L 18.820312 17.8125 C 18.335938 18.054688 18.144531 18.644531 18.386719 19.128906 C 18.558594 19.472656 18.90625 19.667969 19.265625 19.667969 Z M 19.265625 19.667969 "/>
<path style=" stroke:none;fill-rule:nonzero;fill:rgb(0%,0%,0%);fill-opacity:1;" d="M 17.894531 36.601562 L 17.890625 36.605469 C 17.40625 36.847656 17.214844 37.4375 17.457031 37.921875 C 17.628906 38.265625 17.976562 38.460938 18.335938 38.460938 C 18.488281 38.460938 18.640625 38.425781 18.78125 38.355469 C 19.265625 38.113281 19.460938 37.519531 19.214844 37.035156 C 18.972656 36.550781 18.378906 36.355469 17.894531 36.601562 Z M 17.894531 36.601562 "/>
<path style=" stroke:none;fill-rule:nonzero;fill:rgb(0%,0%,0%);fill-opacity:1;" d="M 26.628906 34.296875 C 26.777344 34.296875 26.925781 34.261719 27.066406 34.191406 C 27.554688 33.953125 27.75 33.363281 27.511719 32.875 C 27.269531 32.390625 26.679688 32.191406 26.195312 32.433594 L 26.1875 32.433594 C 25.703125 32.675781 25.503906 33.265625 25.746094 33.75 C 25.917969 34.097656 26.265625 34.296875 26.628906 34.296875 Z M 26.628906 34.296875 "/>
<path style=" stroke:none;fill-rule:nonzero;fill:rgb(0%,0%,0%);fill-opacity:1;" d="M 37.257812 24.5625 C 39.269531 24.5625 41.148438 23.566406 42.277344 21.898438 C 42.480469 21.597656 42.503906 21.207031 42.332031 20.886719 C 42.164062 20.566406 41.828125 20.363281 41.464844 20.363281 L 41.308594 20.363281 C 39.050781 20.363281 37.214844 18.53125 37.214844 16.273438 C 37.214844 15.457031 37.457031 14.664062 37.914062 13.984375 C 38.121094 13.679688 38.136719 13.28125 37.960938 12.960938 C 37.78125 12.636719 37.4375 12.441406 37.070312 12.453125 C 35.492188 12.5 34.015625 13.152344 32.910156 14.285156 C 31.804688 15.421875 31.195312 16.921875 31.195312 18.507812 C 31.195312 21.84375 33.914062 24.5625 37.257812 24.5625 Z M 35.421875 14.84375 C 35.308594 15.308594 35.25 15.789062 35.25 16.273438 C 35.25 18.933594 36.976562 21.199219 39.367188 22.011719 C 38.738281 22.386719 38.011719 22.597656 37.253906 22.597656 C 34.996094 22.597656 33.160156 20.761719 33.160156 18.507812 C 33.160156 16.898438 34.074219 15.511719 35.421875 14.84375 Z M 35.421875 14.84375 "/>
<path style=" stroke:none;fill-rule:nonzero;fill:rgb(0%,0%,0%);fill-opacity:1;" d="M 31.988281 11.496094 C 32.53125 11.496094 32.96875 11.054688 32.96875 10.511719 C 32.96875 9.96875 32.53125 9.53125 31.988281 9.53125 L 31.980469 9.53125 C 31.4375 9.53125 31.003906 9.96875 31.003906 10.511719 C 31.003906 11.054688 31.445312 11.496094 31.988281 11.496094 Z M 31.988281 11.496094 "/>
<path style=" stroke:none;fill-rule:nonzero;fill:rgb(0%,0%,0%);fill-opacity:1;" d="M 41.265625 11.496094 C 41.808594 11.496094 42.25 11.054688 42.25 10.511719 C 42.25 9.96875 41.808594 9.53125 41.265625 9.53125 C 40.722656 9.53125 40.28125 9.96875 40.28125 10.511719 C 40.28125 11.054688 40.722656 11.496094 41.265625 11.496094 Z M 41.265625 11.496094 "/>
<path style=" stroke:none;fill-rule:nonzero;fill:rgb(0%,0%,0%);fill-opacity:1;" d="M 41.265625 25.902344 C 40.722656 25.902344 40.28125 26.339844 40.28125 26.882812 C 40.28125 27.425781 40.722656 27.867188 41.265625 27.867188 C 41.808594 27.867188 42.25 27.425781 42.25 26.882812 C 42.25 26.339844 41.808594 25.902344 41.265625 25.902344 Z M 41.265625 25.902344 "/>
<path style=" stroke:none;fill-rule:nonzero;fill:rgb(0%,0%,0%);fill-opacity:1;" d="M 36.605469 3.332031 L 36.625 3.332031 C 37.167969 3.332031 37.609375 2.894531 37.609375 2.351562 C 37.609375 1.808594 37.167969 1.367188 36.625 1.367188 L 36.605469 1.367188 C 36.0625 1.367188 35.625 1.808594 35.625 2.351562 C 35.625 2.894531 36.0625 3.332031 36.605469 3.332031 Z M 36.605469 3.332031 "/>
</g>
</svg>
