<svg xmlns="http://www.w3.org/2000/svg" width="25" height="24" fill="none"  xmlns:v="https://vecta.io/nano"><g clip-path="url(#B)"><path d="M12.712 23.64c6.429 0 11.64-5.211 11.64-11.64S19.141.36 12.712.36 1.072 5.571 1.072 12s5.211 11.64 11.64 11.64z" fill="url(#A)"/><path d="M17.806 16.638L13.87 7.122c-.222-.492-.552-.732-.987-.732h-.348c-.435 0-.765.24-.987.732l-1.713 4.146H8.539a.71.71 0 0 0-.705.705v.009a.71.71 0 0 0 .705.705h.696L7.6 16.638c-.03.087-.048.177-.048.27 0 .222.069.396.192.531s.3.201.522.201a.7.7 0 0 0 .405-.135c.126-.087.213-.213.282-.357l1.8-4.464h1.248a.71.71 0 0 0 .705-.705v-.018a.71.71 0 0 0-.705-.705h-.666l1.374-3.423 3.744 9.312c.069.144.156.27.282.357.117.087.261.132.405.135.222 0 .396-.066.522-.201s.192-.309.192-.531a.63.63 0 0 0-.048-.267z" fill="#fff"/></g><defs><linearGradient id="A" x1="21.391" y1="4.698" x2="4.07" y2="19.271" gradientUnits="userSpaceOnUse"><stop stop-color="#b6509e"/><stop offset="1" stop-color="#2ebac6"/></linearGradient><clipPath id="B"><path fill="#fff" transform="translate(.712)" d="M0 0h24v24H0z"/></clipPath></defs></svg>