<svg width="24" height="24" viewBox="0 0 24 24" fill="none" xmlns="http://www.w3.org/2000/svg">
<path d="M23.5794 9.55586C23.6778 7.49284 22.2368 6.12346 20.6079 5.18369L19.5518 11.3996C19.7698 11.3693 19.9918 11.3864 20.2027 11.4497C20.4135 11.5131 20.6082 11.6211 20.7735 11.7666C20.9628 11.9524 21.076 12.2021 21.0909 12.467C21.1058 12.7319 21.0213 12.9927 20.854 13.1986C21.8743 13.0285 23.463 12.0485 23.5794 9.55586Z" fill="url(#paint0_linear)"/>
<path fill-rule="evenodd" clip-rule="evenodd" d="M9.7066 2.32857L8.45357 1.06211C10.351 0.829406 15.3587 1.12476 20.2052 4.16336C20.2495 4.43454 20.2495 4.71113 20.2052 4.98231L20.6124 5.18816C20.938 5.72817 21.1524 6.32778 21.2431 6.95178C21.3338 7.57578 21.2989 8.21161 21.1405 8.82195C20.7198 10.5046 19.9993 11.2475 19.6771 11.3996C19.0282 11.3996 17.9229 11.7755 17.5649 13.4403C17.2069 15.105 16.5177 15.4675 16.2224 15.4406L9.06218 15.5257L4.33647 12.7421L3.65625 6.98268L4.99878 5.19264L7.39744 3.23254L9.10693 2.53442L9.7066 2.32857ZM18.169 4.68695C17.9668 4.90126 17.731 5.08114 17.4709 5.21949C15.6316 4.82568 14.9648 3.87695 14.9648 3.87695C16.5289 3.83024 18.0761 4.21085 19.44 4.97783C19.0246 4.8475 18.5997 4.75024 18.169 4.68695V4.68695Z" fill="url(#paint1_linear)"/>
<path fill-rule="evenodd" clip-rule="evenodd" d="M17.5021 13.4403C16.1399 14.0954 14.646 14.4306 13.1344 14.4203C8.61906 14.4203 4.96289 11.5831 4.96289 8.08803C4.96289 5.50142 6.95879 3.28176 9.81839 2.29724C4.37666 2.6105 0 6.98268 0 12.3797C0 18.609 5.55361 23.7554 12.3916 23.7554C14.7679 23.7357 17.0961 23.0831 19.1365 21.8647C21.1768 20.6463 22.8556 18.9062 24 16.8234C20.9346 17.5126 17.3142 16.2014 17.5021 13.4403Z" fill="url(#paint2_linear)"/>
<defs>
<linearGradient id="paint0_linear" x1="21.297" y1="7.00058" x2="21.9325" y2="14.5948" gradientUnits="userSpaceOnUse">
<stop stop-color="#01E8F7"/>
<stop offset="1" stop-color="#00C2FF"/>
</linearGradient>
<linearGradient id="paint1_linear" x1="8.7892" y1="2.91928" x2="16.1642" y2="14.6262" gradientUnits="userSpaceOnUse">
<stop stop-color="#01E8F7"/>
<stop offset="1" stop-color="#00B3EC"/>
</linearGradient>
<linearGradient id="paint2_linear" x1="735.12" y1="834.015" x2="763.33" y2="-72.168" gradientUnits="userSpaceOnUse">
<stop stop-color="#01E8F7"/>
<stop offset="1" stop-color="#00C2FF"/>
</linearGradient>
</defs>
</svg>
