<svg width="24" height="24" viewBox="0 0 24 24" fill="none" xmlns="http://www.w3.org/2000/svg">
<g clip-path="url(#clip0)">
<path d="M12 0C5.37248 0 0 5.36709 0 11.988C0 18.609 5.37248 23.9761 12 23.9761C18.6276 23.9761 24 18.609 24 11.988C24 5.36724 18.6274 0 12 0ZM16.935 16.995L11.9211 19.8918V19.8929H11.919L6.90184 16.995V6.97071L6.90702 6.97384L11.9169 4.0832L15.1325 5.87568H15.1335V10.401L13.5688 9.50325V6.77766L11.919 5.83834L8.46546 7.8332V16.1429L11.919 18.1377L15.3724 16.1491L15.3891 12.7343L10.4821 9.89038L12.0582 9.06211L16.9475 11.9102L16.935 16.996V16.995ZM12.8644 11.6621L14.0727 12.3565L10.4821 14.3991V10.2806L11.7434 11.0238V12.26L12.8655 11.6621H12.8644Z" fill="#516FFA"/>
</g>
<defs>
<clipPath id="clip0">
<rect width="24" height="24" fill="white"/>
</clipPath>
</defs>
</svg>
