<svg xmlns="http://www.w3.org/2000/svg" width="24" height="24" fill="none"  xmlns:v="https://vecta.io/nano"><g clip-path="url(#A)" fill="#008de4"><path d="M15.719 2H6.982l-.725 4.048 7.886.009c3.885 0 5.03 1.412 4.997 3.749-.019 1.197-.538 3.226-.762 3.885-.598 1.753-1.828 3.749-6.437 3.744l-7.667-.005-.722 4.053h8.718c3.076 0 4.38-.36 5.769-.996 3.071-1.426 4.899-4.455 5.633-8.41C24.76 6.189 23.404 2 15.719 2zM3.212 9.709C.921 9.709.594 11.2.379 12.102L0 13.762h8.947c2.291 0 2.618-1.491 2.833-2.393l.379-1.659H3.212z"/></g><defs><clipPath id="A"><path fill="#fff" d="M0 0h24v24H0z"/></clipPath></defs></svg>