<svg xmlns="http://www.w3.org/2000/svg" width="24" height="24" fill="none"><path d="M12.121 0C7.092.02 3.02 4.079 3 9.092c0 1.004.163 2.001.481 2.953.238.648.943.997 1.604.797.64-.245.979-.942.775-1.594a5.98 5.98 0 0 1-.355-2.318c.11-3.621 3.143-6.467 6.775-6.358s6.488 3.133 6.378 6.753a6.57 6.57 0 0 1-6.177 6.349s-1.28.078-1.917.155a6.65 6.65 0 0 0-.697.138c-.033.034-.086.034-.119.001l-.001-.001c-.023-.03-.023-.072 0-.102l.198-1.078 1.202-5.391c.144-.673-.286-1.336-.961-1.479a1.25 1.25 0 0 0-1.484.958l-2.86 13.315a1.2 1.2 0 0 0 .869 1.456c.007.002.014.004.021.005h.066a1.2 1.2 0 0 0 1.464-.86c.003-.011.006-.021.008-.033-.002-.02-.002-.04 0-.059.036-.155.396-1.911.396-1.911a3.24 3.24 0 0 1 2.686-2.546c.276-.042 1.436-.12 1.436-.12 5.009-.498 8.666-4.95 8.166-9.943C20.498 3.625 16.713.119 12.121 0z" fill="#1e1e1e"/><path d="M12.674 20.963a1.52 1.52 0 0 0-1.798 1.175l-.005.023a1.51 1.51 0 0 0 1.157 1.796l.045.001a1.49 1.49 0 0 0 1.798-1.095l.005-.102a1.57 1.57 0 0 0-1.202-1.798z" fill="#e6007a"/></svg>