<svg xmlns="http://www.w3.org/2000/svg" width="24" height="24" fill="none"  xmlns:v="https://vecta.io/nano"><path d="M5 13.07l7.439 3.961 7.378-3.961L12.439 24 5 13.07zm.284-1.095l7.164-3.822 7.07 3.795-7.066 3.827-7.168-3.799zm7.155-5.047L5 10.845 12.407 0l7.411 10.869-7.378-3.941z" fill="#3ab83a"/><g fill="#0b8311"><path d="M12.439 17.031l7.378-3.961L12.439 24v-6.969zm.008-8.878l7.07 3.795-7.066 3.827-.004-7.621zm-.008-1.224L12.407 0l7.411 10.869-7.378-3.94z"/><path d="M5.284 11.976l7.164.588 7.07-.612-7.067 3.827-7.168-3.803z"/></g><path d="M12.447 12.564l7.07-.612-7.066 3.827-.004-3.215z" fill="#146714"/></svg>