<svg width="24" height="24" viewBox="0 0 24 24" fill="none" xmlns="http://www.w3.org/2000/svg">
<path fill-rule="evenodd" clip-rule="evenodd" d="M12 0C18.6264 0 24 5.3736 24 12C24 18.6264 18.6264 24 12 24C5.3736 24 0 18.6264 0 12C0 5.3736 5.3736 0 12 0Z" fill="#1212F8"/>
<path fill-rule="evenodd" clip-rule="evenodd" d="M11.6676 4.05621C11.5126 4.05621 11.3864 4.08896 11.3165 4.12588L7.20007 6.30066L11.3165 8.47544C11.3864 8.51236 11.5126 8.54511 11.6676 8.54511C11.8227 8.54511 11.9489 8.51236 12.0188 8.47544L16.1352 6.30066L12.0188 4.12588C11.9489 4.08896 11.8227 4.05621 11.6676 4.05621ZM16.42 7.34475L13.0249 9.13845L16.42 10.9322V7.34475ZM16.1352 11.9762L12.1957 9.89495V14.0575L16.1352 11.9762ZM11.1395 14.0575V9.89495L7.20007 11.9762L11.1395 14.0575ZM6.91528 10.9322L10.3104 9.13845L6.91528 7.34475V10.9322ZM6.04585 5.83346C6.14884 5.69211 6.28906 5.58741 6.42071 5.51786L10.8231 3.19199C11.0834 3.05447 11.39 3 11.6676 3C11.9453 3 12.2519 3.05447 12.5122 3.19199L16.9146 5.51786C17.0462 5.58741 17.1864 5.69211 17.2894 5.83346H17.4762V18.3756H17.2925C17.1893 18.5192 17.0475 18.6253 16.9146 18.6956L12.5122 21.0214C12.2519 21.159 11.9453 21.2134 11.6676 21.2134C11.39 21.2134 11.0834 21.159 10.8231 21.0214L6.42071 18.6956C6.28772 18.6253 6.14598 18.5192 6.04272 18.3756H5.85906V5.83346H6.04585ZM7.20007 17.9128L11.3165 20.0876C11.3864 20.1245 11.5126 20.1572 11.6676 20.1572C11.8227 20.1572 11.9489 20.1245 12.0188 20.0876L16.1352 17.9128L12.0188 15.738C11.9489 15.7011 11.8227 15.6683 11.6676 15.6683C11.5126 15.6683 11.3864 15.7011 11.3165 15.738L7.20007 17.9128ZM16.42 16.8687V13.0203L12.7779 14.9445L16.42 16.8687ZM10.5573 14.9445L6.91528 16.8687V13.0203L10.5573 14.9445ZM17.2279 4.77805C17.2073 4.76562 17.1863 4.75287 17.1646 4.73978L17.7117 3.83627C17.7512 3.86022 17.7912 3.88418 17.8315 3.90828C18.1872 4.12131 18.5627 4.34617 18.8225 4.68325C19.1395 5.09453 19.252 5.60797 19.252 6.31036H18.1958C18.1958 5.70801 18.0963 5.47123 17.9859 5.328C17.8541 5.15691 17.6566 5.03742 17.2279 4.77805ZM6.02409 19.2397C6.04463 19.2521 6.06571 19.2648 6.08734 19.2779L5.54029 20.1815C5.50074 20.1575 5.46073 20.1335 5.42047 20.1094C5.06472 19.8964 4.68922 19.6715 4.42943 19.3345C4.11245 18.9232 4 18.4098 4 17.7074H5.05621C5.05621 18.3097 5.15563 18.5465 5.26601 18.6897C5.39787 18.8608 5.59538 18.9803 6.02409 19.2397Z" fill="white"/>
</svg>
