<svg xmlns="http://www.w3.org/2000/svg" width="24" height="24" fill="none"  fill-rule="evenodd"><path d="M9.314 10.88l2.685 5.956 4-2.305V9.919l-6.685.961z" fill="#2bbdf7"/><path d="M21.161 6.461l-2.495-.94L16 5.306v14.331l4 2.305 3.157-6.461-1.991-6.247-.005-2.773z" fill="#2891f9"/><path d="M20.927 5.307l-.928 2.305v14.329l4-2.305V5.307h-3.073z" fill="#2bbdf7"/><path d="M20 3.001l-4 2.306 4 2.306 4-2.306-4-2.306z" fill="#2b6def"/><path d="M12.001 12.222v-.001l-4-4.476-8-2.44v14.329L4 21.94l1.143-7.93 2.858.519v-.002l4 2.305-.001-4.61z" fill="#2891f9"/><path d="M4.002 3L0 5.306l11.999 6.919 4-2.306L4.002 3z" fill="#2b6def"/><path d="M4.002 12.223h-.001v9.718l4-2.305v-5.107l-4-2.306z" fill="#2bbdf7"/></svg>