<svg xmlns="http://www.w3.org/2000/svg" width="24" height="24" fill="none"  xmlns:v="https://vecta.io/nano"><path d="M12 24c6.627 0 12-5.373 12-12S18.627 0 12 0 0 5.373 0 12s5.373 12 12 12z" fill="url(#A)"/><path d="M6.094 15.6V9.952l4.283 3.224V15.6h1.093v-2.652c0-.099-.023-.196-.067-.284a.64.64 0 0 0-.187-.224L6.022 8.529a.64.64 0 0 0-.668-.059A.64.64 0 0 0 5 9.04v6.56h1.094zm11.846 0V9.952l-4.283 3.224V15.6h-1.093v-2.652c0-.099.023-.196.067-.284a.64.64 0 0 1 .187-.224l5.194-3.909a.64.64 0 0 1 .667-.059.64.64 0 0 1 .355.568v6.56h-1.094z" fill="#fff"/><defs><linearGradient id="A" x1="12" y1="0" x2="12" y2="24" gradientUnits="userSpaceOnUse"><stop stop-color="#4fa89b"/><stop offset="1" stop-color="#6acebb"/></linearGradient></defs></svg>