<svg xmlns="http://www.w3.org/2000/svg" width="24" height="24" fill="none"><g clip-path="url(#A)"><path d="M4.357 5.035l1.783-.944.21.42L12.854.734l-.42-.315-.524-.315L11.7 0 1 6.189v.21l3.042-1.678.315.315zm0 3.986l5.14-3.042.21.42 6.609-3.776-.524-.315-.524-.21-.21-.105L1 10.071v.21l3.042-1.678.315.42zm0 1.888l6.819-3.881.21.315 6.609-3.776-.524-.21-.524-.315-.21-.105L1 11.959v.315l3.042-1.783.315.42zm0 1.888l8.497-4.825.21.315 6.609-3.672-1.049-.629-.21-.105L1 13.952v.21l3.042-1.678.315.315zm0 1.993l10.176-5.875.21.42 6.609-3.776-.524-.315-.42-.21-.315-.21L1 15.84v.315l3.042-1.783.315.42zM21.98 5.979l-.21-.21L1 17.833v.21l3.042-1.678.315.42 10.176-5.979.21.42L22.4 6.924v-.734l-.42-.21zM2.364 19.302l1.678-1.049.21.42 10.28-5.874.21.42L22.4 8.812V7.448L2.049 19.092l.315.21zm12.169-4.511l.21.42L22.4 10.7V9.336L3.727 20.141l.315.105 1.678-1.049.315.42 8.497-4.826zM5.721 21.19l1.783-.944.21.42 6.819-3.986.21.42 7.658-4.406v-1.364L5.406 21.085l.315.105zm1.678.944l1.783-.944.21.42 5.14-2.937.21.42 7.658-4.406v-1.469L7.084 22.029l.315.105zm1.364.839l.315.21 1.783-1.049.21.42 3.462-1.993.21.42 7.658-4.406v-1.364L8.763 22.974zm1.993 1.154l1.678-1.049.315.42 1.783-.944.21.42 7.658-4.406v-1.469l-11.854 6.924.21.105zm3.881-22.449l-.525-.315-.524-.21-.21-.21L1 8.077v.315l3.042-1.783.315.42 3.462-1.993.21.42 6.609-3.776z" fill="#001c3a"/></g><defs><clipPath id="A"><path fill="#fff" d="M0 0h24v24H0z"/></clipPath></defs></svg>