<svg xmlns="http://www.w3.org/2000/svg" width="25" height="24" fill="none"  xmlns:v="https://vecta.io/nano"><g clip-path="url(#A)"><path d="M12.712 24c6.628 0 12-5.373 12-12s-5.372-12-12-12-12 5.373-12 12 5.373 12 12 12z" fill="#0e0e21"/><path d="M19.412 14.8l-1.425-2.425c-.05-.1-.175-.125-.25-.05l-.925.6c-.075.05-.1.175-.05.25l.825 1.375c.025.05 0 .1-.025.125l-4.8 3.1c-.025.025-.075.025-.1 0l-4.75-3.1c-.05-.025-.05-.075-.025-.125l.825-1.375c.05-.075.025-.2-.05-.25l-.925-.6c-.1-.05-.2-.025-.25.05L6.062 14.8c-.1.175-.05.4.125.5l6.375 4.15c.125.075.275.075.4 0l6.375-4.15c.125-.125.175-.35.075-.5z" fill="#fff"/><path d="M8.437 11.025l.925.6c.1.05.2.025.25-.05l3-5.1c.025-.05.125-.05.15 0l3 5.1c.05.1.175.125.25.05l.925-.6c.075-.05.1-.175.05-.25l-3.525-6.1c-.075-.125-.175-.175-.325-.175h-.85c-.125 0-.25.075-.325.175l-3.575 6.1c-.05.075-.025.2.05.25z" fill="#2ae7a8"/></g><defs><clipPath id="A"><path fill="#fff" transform="translate(.712)" d="M0 0h24v24H0z"/></clipPath></defs></svg>