<svg xmlns="http://www.w3.org/2000/svg" width="24" height="24" fill="none"  xmlns:v="https://vecta.io/nano"><path d="M11.999 23.997a12 12 0 0 0 11.999-11.999A12 12 0 0 0 11.999 0 12 12 0 0 0 0 11.999a12 12 0 0 0 11.999 11.999z" fill="url(#A)"/><path d="M8.047 9.016c-.096-.119-.241-.185-.397-.185H4.445c-.026 0-.05-.01-.069-.026s-.026-.036-.026-.06v-2.16c0-.023.01-.043.026-.06s.043-.03.069-.026h3.387c.853 0 1.591.351 2.213 1.048l.823 1.005-1.604 1.955-1.217-1.492zm5.92-1.478c.618-.691 1.359-1.038 2.223-1.038h3.377c.023-.003.046.007.063.02s.023.04.02.066v2.16c0 .023-.007.043-.02.06s-.04.03-.063.026h-3.205c-.152-.003-.298.066-.397.185l-2.361 2.874 2.371 2.894c.096.109.238.175.384.172h3.205c.023-.003.05.01.063.026s.023.046.02.069v2.16c0 .023-.007.043-.02.06s-.04.03-.063.026h-3.373c-.863 0-1.597-.351-2.213-1.048l-1.964-2.398-1.965 2.398c-.618.698-1.359 1.048-2.222 1.048h-3.38c-.023.003-.05-.01-.063-.026s-.023-.046-.02-.069v-2.16c0-.023.007-.043.02-.06s.04-.03.063-.026H7.65c.152 0 .298-.069.397-.185l5.92-7.233z" fill="#00d1ff"/><defs><linearGradient id="A" x1="12" y1="0" x2="12" y2="6.35" gradientUnits="userSpaceOnUse"><stop stop-color="#090220"/><stop offset="1" stop-color="#170659"/></linearGradient></defs></svg>