<svg xmlns="http://www.w3.org/2000/svg" width="24" height="24" fill="none"><path d="M12 24c6.628 0 12-5.373 12-12S18.628 0 12 0 0 5.373 0 12s5.373 12 12 12z" fill="#10ba97"/><g fill="#1e1a31"><path d="M15.749 16.522h2.338c.326 0 .572-.063.737-.19s.248-.326.248-.599-.082-.472-.248-.599-.411-.196-.737-.196h-2.338v-.864h2.292c.576 0 1.016.142 1.319.426s.455.691.455 1.232-.152.952-.455 1.232-.743.42-1.319.42h-2.292v-.864zm2.718-3.792a.67.67 0 0 0 .484-.242c.123-.146.178-.347.178-.593a.88.88 0 0 0-.127-.495.42.42 0 0 0-.363-.196c-.108 0-.192.037-.254.109s-.115.169-.149.299l-.138.593a3.24 3.24 0 0 1-.19.668 1.1 1.1 0 0 1-.351.443c-.154.115-.365.167-.622.167a1.08 1.08 0 0 1-.628-.19c-.184-.13-.328-.309-.432-.535s-.161-.489-.161-.777c0-.296.056-.561.167-.795s.258-.424.45-.559.409-.209.651-.213v.846a.6.6 0 0 0-.415.219c-.108.127-.161.294-.161.501 0 .192.04.345.121.461s.196.173.346.173c.108 0 .192-.035.254-.104s.106-.167.144-.294a6.69 6.69 0 0 0 .127-.587c.05-.265.113-.495.19-.68s.186-.332.339-.443.352-.173.605-.173a1.14 1.14 0 0 1 .662.202 1.36 1.36 0 0 1 .455.564 1.9 1.9 0 0 1 .167.806c0 .322-.058.61-.173.864a1.39 1.39 0 0 1-.489.587 1.24 1.24 0 0 1-.697.219l.012-.846zm-2.718-2.914V8.417c0-.403.086-.758.259-1.065s.407-.549.714-.714.65-.253 1.042-.253a2.14 2.14 0 0 1 1.048.253 1.78 1.78 0 0 1 .714.714c.169.307.253.662.253 1.065v1.399h-4.031zm3.311-1.399c0-.365-.117-.647-.351-.846s-.553-.305-.945-.305-.704.102-.938.305-.357.482-.357.846v.536h2.591v-.536z"/><path opacity=".5" d="M6.384 17.567l-1.198-.855 7.535-10.47 1.198.855-7.535 10.47z"/><path fill-rule="evenodd" d="M10.265 11.216h.402a3.35 3.35 0 0 1 3.354 3.342 3.35 3.35 0 0 1-3.354 3.342H5.737c-.407 0-.737-.329-.737-.734s.33-.734.737-.734h4.931c1.039 0 1.88-.839 1.88-1.874s-.842-1.874-1.88-1.874H8.353A3.35 3.35 0 0 1 5 9.342 3.35 3.35 0 0 1 8.353 6h4.931c.407 0 .737.329.737.734s-.33.734-.737.734H8.353c-1.038 0-1.88.839-1.88 1.874s.842 1.874 1.88 1.874h1.912z"/></g></svg>