<svg width="24" height="24" viewBox="0 0 24 24" fill="none" xmlns="http://www.w3.org/2000/svg">
<path d="M5.71448 13.4364L6.34942 8.66894L0.842041 4.84822L5.87406 6.5516L7.06246 4.72946L11.4018 2.03867L20.9667 7.30488L21.4625 15.3399L17.2012 21.2576L13.8329 21.7734L15.5748 18.5872V15.5198L14.3083 13.1242L13.0214 12.2725L11.0419 14.3118V16.4699L9.49698 17.9154L7.53443 18.1529L6.6652 18.6449L5.23912 18.1902L4.64492 16.0525L5.71448 14.5493V13.4364Z" fill="white"/>
<path d="M14.5087 4.80749C13.4595 4.59033 12.3118 4.64801 12.3118 4.64801C12.3118 4.64801 11.9349 6.38871 9.59888 6.84679C9.61585 6.84679 12.6853 7.89528 14.5087 4.80749Z" fill="#94A6C3"/>
<path d="M15.4595 20.6027C16.726 19.6119 17.6767 18.2479 18.1147 16.704C18.1351 16.6463 18.3117 16.5445 18.4305 16.4665C18.6274 16.3477 18.8278 16.2493 18.8651 16.0898C18.9432 15.6351 18.984 15.1601 18.984 14.685C18.984 14.5086 18.804 14.3287 18.6274 14.1523C18.4882 14.0335 18.349 13.8944 18.349 13.796C18.1521 11.9942 17.3202 10.3112 15.9926 9.08629L15.8534 9.22541C17.1402 10.4334 17.9721 12.0757 18.1521 13.8164C18.1724 13.9759 18.3286 14.1319 18.4882 14.2914C18.6274 14.4102 18.787 14.59 18.787 14.6681C18.787 15.1228 18.7463 15.5774 18.6682 16.0321C18.6478 16.1102 18.4712 16.1916 18.332 16.2696C18.1351 16.3681 17.9551 16.4665 17.9178 16.6259C17.4424 18.309 16.3525 19.7748 14.906 20.7249C15.1641 20.1718 15.9756 18.37 16.4102 17.4573L16.3321 14.5289L13.8161 12.096L12.39 12.2928L10.8247 14.8275C10.8247 14.8275 11.5582 15.7573 10.5259 16.8465C9.51751 17.9153 8.72298 18.1529 8.72298 18.1529L7.98957 17.7559C8.20687 17.4776 8.64488 17.0637 8.98103 16.7854C9.55486 16.3104 10.1287 16.2696 10.1287 15.7573C10.1525 14.685 9.0014 14.9802 9.0014 14.9802L8.58376 15.3772L8.4072 16.8431L7.53797 17.9323L7.43951 17.9119L6.01343 17.5964C6.01343 17.5964 6.88605 17.1417 7.02526 16.6259C7.16448 16.1305 6.74684 14.4882 6.72647 14.3898C6.74684 14.4102 7.1441 14.7461 7.32067 15.2992C7.63644 14.4272 8.05408 13.5958 8.17292 13.5178C8.29176 13.4397 9.8944 12.588 9.8944 12.588L9.36132 13.9928L9.75858 13.7757L10.7093 11.4412C10.7093 11.4412 11.6396 10.9865 12.3323 10.9865C13.5784 10.9661 15.4222 9.44257 14.5903 6.71106C14.828 6.80946 18.9466 8.86912 19.6596 12.907C20.1927 16.0118 18.4305 18.9197 15.4595 20.6027Z" fill="#94A6C3"/>
<path d="M10.7466 5.24183C11.2016 4.70571 11.025 3.9151 11.025 3.9151L9.69739 5.87636C9.67702 5.87636 10.1694 5.89672 10.7466 5.24183Z" fill="#1B314F"/>
<path d="M6.28824 15.9507L6.44783 15.1601C6.44783 15.1601 5.79251 16.307 5.73479 16.4665C5.67367 16.6463 5.77553 16.9619 6.03019 16.9415C6.28824 16.9211 6.60402 16.5445 6.60402 16.2697C6.60402 15.9134 6.28824 15.9507 6.28824 15.9507Z" fill="#1B314F"/>
<path d="M18.0534 3.362C18.0534 3.362 19.0449 3.40271 20.0737 3.52148C17.7546 1.69934 15.5578 1.16661 13.7752 1.16661C11.3203 1.16661 9.65654 2.17778 9.55468 2.23546L10.3288 1.00713C10.3288 1.00713 7.239 0.70853 6.14907 3.97616C5.87064 3.28395 5.61599 2.27279 5.61599 2.27279C5.61599 2.27279 4.00995 3.68096 4.76373 6.01546C2.92002 5.34361 0.288562 4.41049 0.1867 4.39352C0.0474872 4.37316 0.00674208 4.43424 0.00674208 4.43424C0.00674208 4.43424 -0.034003 4.49193 0.0848369 4.59372C0.30554 4.76677 4.46494 7.8376 5.37831 8.43141C5.18137 9.14397 5.18137 9.4799 5.37831 9.81582C5.65673 10.2705 5.67371 10.508 5.63636 10.844C5.59561 11.1799 5.23909 14.0912 5.161 14.4475C5.0829 14.8038 4.25102 16.0695 4.28837 16.4461C4.32912 16.8227 4.84183 18.4243 5.30021 18.6042C5.63636 18.7229 6.46824 18.9808 7.02169 18.9808C7.21863 18.9808 7.39859 18.9401 7.47668 18.862C7.81283 18.5668 7.91129 18.5058 8.14897 18.5058C8.16935 18.5058 8.18972 18.5058 8.2067 18.5058C8.30516 18.5058 8.424 18.5261 8.56322 18.5261C8.87899 18.5261 9.29663 18.465 9.59203 18.1902C10.0266 17.7559 10.7804 17.1621 11.0181 16.8838C11.3169 16.5072 11.4731 15.9948 11.395 15.479C11.3339 15.004 11.5919 14.5866 11.8907 14.1727C12.2676 13.6773 12.9603 12.7882 12.9603 12.7882C14.3287 13.813 15.1809 15.3772 15.1809 17.1179C15.1809 20.2057 12.4883 22.6997 9.16081 22.6997C8.64471 22.6997 8.15237 22.642 7.65664 22.5233C9.18118 23.056 10.4681 23.2358 11.5206 23.2358C13.7582 23.2358 14.9466 22.4249 14.9466 22.4249C14.9466 22.4249 14.5324 22.961 13.8567 23.5718C13.8771 23.5718 13.8771 23.5718 13.8771 23.5718C17.5815 23.056 19.3844 20.0089 19.3844 20.0089C19.3844 20.0089 19.2452 20.9997 19.0687 21.6716C23.9954 17.9696 23.1635 13.3379 23.1432 13.1819C23.1839 13.2395 23.6797 13.8333 23.9343 14.1523C24.7288 5.9951 18.0534 3.362 18.0534 3.362ZM10.4681 16.3884C10.39 16.4868 10.0538 16.7854 9.81613 17.0026C9.57845 17.2197 9.3204 17.4369 9.12346 17.6371C9.04537 17.7151 8.88578 17.7559 8.6481 17.7559C8.57001 17.7559 8.48852 17.7559 8.43079 17.7559C8.39005 17.7559 8.3527 17.7559 8.31195 17.7559C8.27121 17.7559 8.25084 17.7559 8.23386 17.7559C8.17274 17.7559 8.11502 17.7559 8.0539 17.7559C8.3527 17.3589 9.22193 16.4495 9.52073 16.2527C9.87725 16.0152 10.0572 15.7776 9.8365 15.3637C9.61919 14.9463 9.04537 15.0481 9.04537 15.0481C9.04537 15.0481 9.38151 14.909 9.68031 14.909C9.30342 14.8106 8.82806 14.909 8.61075 15.1261C8.37307 15.3433 8.41382 16.117 8.31535 16.609C8.21688 17.1247 7.88074 17.3826 7.36463 17.8577C7.08621 18.1155 6.88927 18.1936 6.72969 18.1936C6.39354 18.1359 5.99627 18.0341 5.71785 17.9357C5.52091 17.6778 5.22212 16.8261 5.14402 16.4698C5.20174 16.273 5.43942 15.8557 5.55826 15.6182C5.79594 15.1635 5.93516 14.9056 5.9759 14.6681C6.054 14.3321 6.31205 12.2521 6.41052 11.3835C6.66857 11.7194 7.02509 12.2759 6.9436 12.6322C7.51742 11.8212 7.10318 11.0272 6.90285 10.7116C6.72629 10.3961 6.48861 9.76153 6.68555 9.08968C6.88248 8.41783 7.59552 6.55498 7.59552 6.55498C7.59552 6.55498 7.8332 6.97234 8.16935 6.8909C8.50549 6.81286 11.2184 2.73426 11.2184 2.73426C11.2184 2.73426 11.9519 4.33584 11.1777 5.50649C10.3866 6.67374 9.6124 6.8909 9.6124 6.8909C9.6124 6.8909 10.7023 7.08771 11.7108 6.35478C12.125 7.32523 12.5223 8.333 12.5427 8.47212C12.4815 8.61124 11.6904 10.5114 11.6123 10.6302C11.5716 10.6709 11.2965 10.7489 11.0962 10.7897C10.7601 10.8881 10.5631 10.9491 10.4816 11.0068C10.3424 11.1256 9.70748 12.8663 9.41207 13.718C9.05555 13.8164 8.69903 14.0166 8.44098 14.4102C8.58019 14.3118 9.01481 14.2507 9.33398 14.2134C9.6124 14.193 10.4613 14.6477 10.682 15.4994C10.682 15.5198 10.682 15.5198 10.682 15.5401C10.7261 15.8523 10.6276 16.1509 10.4681 16.3884ZM8.60736 16.6259C8.78731 16.3681 8.76694 15.9337 8.78732 15.7946C8.80769 15.6555 8.84504 15.3976 9.00462 15.3603C9.16421 15.3196 9.5411 15.3806 9.5411 15.6555C9.5411 15.9134 9.26267 15.9711 9.06574 16.1509C8.92313 16.2866 8.64471 16.5852 8.60736 16.6259ZM16.5085 12.8425C16.7054 11.8348 16.7258 10.9627 16.6681 10.2502C17.4389 11.2783 17.9142 12.527 18.0534 13.813C18.0738 13.9725 18.23 14.1286 18.3896 14.288C18.5288 14.4068 18.6884 14.5663 18.6884 14.6647C18.6884 15.1194 18.6476 15.574 18.5695 16.0321C18.5492 16.0898 18.3726 16.1916 18.2334 16.2697C18.0365 16.3681 17.8565 16.4665 17.8191 16.6259C17.3845 18.1495 16.4508 19.4966 15.2047 20.4467C17.045 18.5261 17.9346 15.3569 16.5085 12.8425ZM15.2624 20.6231C16.5493 19.6323 17.5407 18.2479 17.9753 16.6836C17.9957 16.6259 18.1723 16.5241 18.2911 16.4461C18.488 16.3477 18.6884 16.2289 18.7257 16.0695C18.8038 15.6148 18.8446 15.1397 18.8446 14.6647C18.8446 14.4882 18.6646 14.3084 18.488 14.1319C18.3896 14.0132 18.23 13.8741 18.23 13.7757C18.0704 12.3302 17.4966 10.9661 16.607 9.83618C16.2097 7.46096 14.6274 6.72803 14.5867 6.70767C14.6274 6.76875 15.6563 8.25157 14.9432 9.99227C14.2098 11.7533 12.3287 11.4785 12.1692 11.4954C12.0096 11.4954 11.3984 12.2861 10.6242 13.7519C10.5258 13.7112 10.1081 13.6128 9.63278 13.6942C9.9893 12.7034 10.5258 11.2986 10.6242 11.1799C10.665 11.1392 10.9604 11.0611 11.1607 11.0034C11.5376 10.905 11.7142 10.844 11.7753 10.7659C11.816 10.7048 12.013 10.2502 12.2099 9.77511C12.3899 9.77511 12.8448 9.73439 12.8822 9.71403C12.9229 9.67331 13.2998 8.70625 13.2998 8.58749C13.2998 8.48909 12.5257 6.56855 12.2303 5.83562C12.3695 5.67614 12.5087 5.47934 12.6445 5.26218C16.7054 5.6999 19.8768 9.14397 19.8768 13.3176C19.8768 16.5241 17.9957 19.3167 15.2624 20.6231Z" fill="#1B314F"/>
<path d="M9.99293 9.93459C10.3698 9.50026 10.1729 8.68929 9.47682 8.55017C9.65678 8.1362 9.91143 7.30487 9.91143 7.30487C9.91143 7.30487 7.89116 10.4707 7.71459 10.5318C7.53464 10.5929 7.35807 9.89726 7.35807 9.89726C6.98118 11.3428 7.99302 11.5396 8.11186 11.0849C8.66531 10.9424 9.61603 10.3486 9.99293 9.93459Z" fill="#1B314F"/>
<path d="M8.26782 10.7048L9.29664 8.94379C9.29664 8.94379 9.89084 9.24239 9.59204 9.71743C9.21854 10.2705 8.26782 10.7048 8.26782 10.7048Z" fill="#FFD923"/>
<path d="M21.0042 18.862C20.7054 19.259 20.3692 19.673 19.9753 20.07C22.5287 15.1601 20.0942 10.6675 19.9957 10.4911C20.1757 10.6709 20.3522 10.8677 20.5118 11.0442C22.471 13.2192 22.7087 16.4868 21.0042 18.862Z" fill="#D82122"/>
<path d="M23.3809 12.5473C22.4879 10.1518 21.2214 8.11246 18.4303 6.27336C15.7378 4.49194 12.8449 4.63106 12.6853 4.65142C12.6649 4.65142 12.6445 4.65142 12.6445 4.65142C12.743 4.6107 12.8415 4.59034 12.9399 4.57338C13.5545 4.37657 14.3456 4.21709 15.1402 4.11869C17.2419 3.8167 19.3607 4.52927 20.8071 6.0562C20.8275 6.07656 20.8275 6.07656 20.8479 6.09691C22.4913 7.83762 23.3435 10.0126 23.3809 12.5473Z" fill="#D82122"/>
<path d="M17.7954 2.74784C14.8448 2.19475 12.9434 2.4696 11.575 2.98536C11.5343 2.82588 11.395 2.51032 11.2762 2.25244C10.8654 2.74784 10.4274 3.34165 10.1523 3.71829C9.39854 4.23405 9.08276 4.72946 9.08276 4.72946C9.51738 3.24325 10.7873 2.13707 12.3322 1.85883C12.7668 1.78078 13.2422 1.74007 13.7583 1.74007C15.1232 1.76043 16.4882 2.09635 17.7954 2.74784Z" fill="#D82122"/>
<path d="M6.88255 6.5482C4.56687 6.47016 5.33763 3.77597 5.37838 3.61989C5.37838 3.64025 5.53457 5.73723 6.88255 6.5482Z" fill="#D82122"/>
<path d="M9.16077 1.69934C7.37817 2.76819 7.73469 5.31986 7.73469 5.31986C6.03018 2.73087 9.02156 1.76042 9.16077 1.69934Z" fill="#D82122"/>
<path d="M6.23051 7.26078C6.34935 7.35918 6.4682 7.53902 6.32898 7.7969C6.25089 7.93602 6.13205 7.91566 5.95209 7.83762C5.71441 7.71886 4.28833 6.88753 3.00146 6.03584C4.46829 6.55161 5.95209 7.10469 6.18977 7.22346C6.18977 7.22346 6.21014 7.24382 6.23051 7.26078Z" fill="white"/>
</svg>
