<svg xmlns="http://www.w3.org/2000/svg" width="24" height="24" fill="#0033ad"><path d="M6.579 12.057a1.62 1.62 0 0 0 1.523 1.71h.096a1.61 1.61 0 0 0 1.613-1.626 1.61 1.61 0 0 0-1.619-1.62 1.62 1.62 0 0 0-1.613 1.536zM.551 11.64a.52.52 0 0 0-.55.495c-.013.289.205.54.493.553.288.019.531-.206.55-.495s-.205-.534-.493-.553zm5.926-9.006a.53.53 0 0 0 .23-.707c-.128-.257-.448-.36-.704-.231s-.358.444-.23.701c.128.264.442.373.704.238zm1.638 2.873a.81.81 0 0 0 .358-1.086c-.199-.398-.685-.559-1.082-.36a.81.81 0 0 0-.358 1.086c.199.398.685.559 1.082.36zM2.599 7.481a.67.67 0 0 0 .922-.193c.198-.309.115-.72-.192-.926a.67.67 0 0 0-.922.193.67.67 0 0 0 .192.926zm.979 3.869c-.448-.026-.826.315-.851.765s.314.829.762.855.826-.315.851-.765a.81.81 0 0 0-.762-.855zm-.89 5.445a.67.67 0 0 0-.294.9c.166.328.563.463.896.296a.67.67 0 0 0 .294-.9.67.67 0 0 0-.896-.296zm3.136-7.122a.94.94 0 0 0 1.312-.276.95.95 0 0 0-.275-1.318.94.94 0 0 0-1.312.276.95.95 0 0 0 .275 1.318zm9.952-4.23a.81.81 0 0 0 1.12-.231.82.82 0 0 0-.23-1.125.81.81 0 0 0-1.12.231c-.25.379-.147.881.23 1.125zm1.651-2.861c.243.161.563.09.723-.154s.09-.566-.154-.726-.563-.09-.723.148c-.154.244-.083.572.154.733zm-1.53 7.926c-.89-.052-1.657.636-1.702 1.53-.051.893.633 1.665 1.523 1.71h.09a1.62 1.62 0 0 0 1.613-1.626 1.61 1.61 0 0 0-1.523-1.613zm-7.251-.951a1.62 1.62 0 0 0 1.446.893 1.62 1.62 0 0 0 1.613-1.626c0-.251-.058-.501-.173-.733a1.61 1.61 0 0 0-2.169-.72c-.8.411-1.12 1.388-.717 2.186zm12.666-2.076a.67.67 0 0 0 .288-.9c-.166-.328-.569-.456-.896-.289s-.454.566-.294.894c.173.328.57.463.902.296zm-4.096.514c-.467.238-.659.81-.422 1.279s.806.662 1.273.424.659-.81.422-1.279-.806-.656-1.274-.424zm-5.28-5.657c.365.019.678-.264.704-.63s-.262-.681-.627-.707a.67.67 0 0 0-.704.624.68.68 0 0 0 .627.714zm-.006 4.198c.525.032.973-.373.998-.9.032-.527-.371-.977-.896-1.003-.525-.032-.973.373-.998.9a.95.95 0 0 0 .896 1.003zm-5.146 9.745c.467-.238.659-.81.422-1.279s-.806-.662-1.274-.424-.659.81-.422 1.279.806.662 1.274.424zm5.76-8.35c-.486.752-.282 1.755.467 2.243s1.747.283 2.233-.469.282-1.755-.467-2.243a1.6 1.6 0 0 0-.883-.264 1.62 1.62 0 0 0-1.35.733zm2.81 6.788a1.61 1.61 0 0 0-2.17-.72c-.8.405-1.12 1.382-.717 2.179a1.61 1.61 0 0 0 2.169.72 1.62 1.62 0 0 0 .723-2.166zm2.822-.116a.94.94 0 0 0-1.312.276.95.95 0 0 0 .275 1.318.94.94 0 0 0 1.312-.276.95.95 0 0 0-.275-1.318zm3.097-2.436c.026-.45-.314-.829-.762-.855s-.826.315-.851.765.314.829.762.855c.442.026.826-.321.851-.765zm2.234-.579a.52.52 0 0 0-.55.495c-.013.289.205.54.493.553.288.019.531-.206.55-.495a.53.53 0 0 0-.493-.553zm-2.106 5.207c-.307-.199-.717-.116-.921.193-.198.309-.115.72.192.926.307.199.717.116.921-.193a.67.67 0 0 0-.192-.926zM6.567 21.693a.52.52 0 0 0-.723.148c-.16.244-.09.566.147.726a.52.52 0 0 0 .723-.148c.166-.238.096-.566-.147-.726zm10.956-.051a.53.53 0 0 0-.23.707c.128.257.448.36.704.231s.358-.444.23-.701c-.128-.264-.442-.373-.704-.238zm-6.067-5.297a1.63 1.63 0 0 0-.467-2.25c-.749-.489-1.747-.283-2.24.469s-.282 1.755.467 2.25a1.6 1.6 0 0 0 .883.264 1.59 1.59 0 0 0 1.357-.733zm-3.232 2.488a.81.81 0 0 0-1.12.231.82.82 0 0 0 .23 1.125.81.81 0 0 0 1.12-.231c.25-.373.147-.881-.23-1.125zm3.77 3.104c-.365-.019-.678.264-.704.63s.262.681.627.707a.67.67 0 0 0 .704-.624.68.68 0 0 0-.627-.713zM12 17.74c-.525-.032-.973.373-.998.9-.032.527.371.977.896 1.003A.953.953 0 1 0 12 17.74zm3.885 1.028c-.397.206-.557.694-.352 1.093s.691.559 1.088.354a.81.81 0 0 0 .358-1.086c-.205-.398-.691-.566-1.094-.36z"/></svg>