<svg width="24" height="24" viewBox="0 0 24 24" fill="none" xmlns="http://www.w3.org/2000/svg">
<path d="M12 24C18.6274 24 24 18.6274 24 12C24 5.37258 18.6274 0 12 0C5.37258 0 0 5.37258 0 12C0 18.6274 5.37258 24 12 24Z" fill="url(#paint0_linear)"/>
<path d="M12 4.74403V4.7507L12.0022 9.49917L12.8617 11.6469L12.0044 10.9317V13.2238C12.0089 13.2304 12.0133 13.2349 12.0178 13.2415C13.3992 14.9695 15.1227 16.4131 17.0883 17.4659L12 4.74403Z" fill="url(#paint1_linear)"/>
<path d="M11.9999 4.74403V4.7507L11.9977 9.49917L11.1382 11.6469L11.9955 10.9317V13.2238C11.991 13.2304 11.9866 13.2349 11.9821 13.2415C10.6007 14.9695 8.8772 16.4131 6.91162 17.4659L11.9999 4.74403Z" fill="url(#paint2_linear)"/>
<path d="M11.9999 16.1355C12.6377 16.1355 13.1548 15.6184 13.1548 14.9806C13.1548 14.3427 12.6377 13.8257 11.9999 13.8257C11.362 13.8257 10.845 14.3427 10.845 14.9806C10.845 15.6184 11.362 16.1355 11.9999 16.1355Z" fill="#F5CC02"/>
<defs>
<linearGradient id="paint0_linear" x1="3.51469" y1="20.487" x2="20.4866" y2="3.51517" gradientUnits="userSpaceOnUse">
<stop stop-color="#102054"/>
<stop offset="1" stop-color="#1A45B8"/>
</linearGradient>
<linearGradient id="paint1_linear" x1="14.5448" y1="4.70625" x2="14.5448" y2="17.6016" gradientUnits="userSpaceOnUse">
<stop stop-color="white"/>
<stop offset="1" stop-color="white" stop-opacity="0.6"/>
</linearGradient>
<linearGradient id="paint2_linear" x1="9.45706" y1="17.5117" x2="9.45706" y2="4.85649" gradientUnits="userSpaceOnUse">
<stop stop-color="white"/>
<stop offset="1" stop-color="white" stop-opacity="0.6"/>
</linearGradient>
</defs>
</svg>
