<svg width="24" height="24" viewBox="0 0 24 24" fill="none" xmlns="http://www.w3.org/2000/svg">
<path d="M12 22C17.5228 22 22 17.5228 22 12C22 6.47715 17.5228 2 12 2C6.47715 2 2 6.47715 2 12C2 17.5228 6.47715 22 12 22Z" fill="#F2E3EE"/>
<path d="M12 23C18.0751 23 23 18.0751 23 12C23 5.92487 18.0751 1 12 1C5.92487 1 1 5.92487 1 12C1 18.0751 5.92487 23 12 23Z" fill="#D9327C" stroke="white"/>
<path fill-rule="evenodd" clip-rule="evenodd" d="M11.5939 7.10937C11.5113 7.17133 11.4177 7.28623 11.3431 7.51015C11.273 7.72025 10.9048 8.7905 10.4446 10.125H13.5557C13.0955 8.7905 12.7272 7.72025 12.6572 7.51015C12.5826 7.28623 12.489 7.17133 12.4064 7.10937C12.3266 7.0495 12.2052 7 12.0001 7C11.7951 7 11.6737 7.0495 11.5939 7.10937ZM7 10.125H9.12237C9.64645 8.60563 10.0822 7.33997 10.1572 7.11485C10.2909 6.71377 10.5099 6.35992 10.8439 6.10937C11.1807 5.85675 11.5802 5.75 12.0001 5.75C12.4201 5.75 12.8196 5.85675 13.1564 6.10937C13.4904 6.35992 13.7094 6.71377 13.8431 7.11485C13.9181 7.33997 14.3538 8.60563 14.8779 10.125H17C17.3452 10.125 17.625 10.4048 17.625 10.75C17.625 11.0952 17.3452 11.375 17 11.375H15.3092H13.9869H10.0134H8.69105H7C6.65482 11.375 6.375 11.0952 6.375 10.75C6.375 10.4048 6.65482 10.125 7 10.125ZM7 12.625C6.65482 12.625 6.375 12.9048 6.375 13.25C6.375 13.5952 6.65482 13.875 7 13.875H7.82775L7.4934 14.8428L7.16015 15.8071L7.03447 16.1707C6.9217 16.4969 7.09472 16.853 7.42095 16.9657C7.74718 17.0785 8.1031 16.9053 8.21588 16.5791L8.34158 16.2154L8.67485 15.251C8.81333 14.8502 8.97547 14.3809 9.15022 13.875H14.8501C15.0248 14.3809 15.187 14.8502 15.3254 15.251L15.6587 16.2154L15.7844 16.5791C15.8972 16.9053 16.2531 17.0785 16.5793 16.9657C16.9055 16.853 17.0787 16.4969 16.9658 16.1707L16.9657 16.1704L16.8402 15.8071L16.5069 14.8428L16.1725 13.875H17C17.3452 13.875 17.625 13.5952 17.625 13.25C17.625 12.9048 17.3452 12.625 17 12.625H15.7408H14.4184H9.5819H8.25948H7ZM16.3751 16.375L16.9658 16.1707C16.9658 16.1708 16.9658 16.1708 16.3751 16.375ZM16.3751 16.375C15.7844 16.5792 15.7844 16.5792 15.7844 16.5791L16.3751 16.375ZM7.62513 16.375L8.21588 16.5791C8.21585 16.5792 8.21585 16.5792 7.62513 16.375ZM7.62513 16.375C7.03443 16.1708 7.03445 16.1708 7.03447 16.1707L7.62513 16.375Z" fill="white"/>
</svg>
