<svg width="24" height="24" viewBox="0 0 24 24" fill="none" xmlns="http://www.w3.org/2000/svg">
<path d="M0.0157334 24C-0.00105553 23.6666 -0.00665184 23.3332 0.0101371 22.9998C0.122063 22.9664 0.233989 22.9442 0.351512 22.9275C0.68729 22.872 1.02307 22.7886 1.34765 22.6941C1.4372 22.6664 1.52674 22.633 1.61628 22.5997C2.04719 22.433 2.42774 22.1551 2.71875 21.7995C2.92022 21.5494 3.0937 21.2771 3.2448 20.9937C3.45746 20.6048 3.64214 20.1991 3.81003 19.7879C4.14581 18.9544 4.48159 18.1264 4.81177 17.2929C5.95341 14.4256 7.09506 11.5582 8.23671 8.6909C9.31679 5.96249 10.3801 3.23408 11.421 0.489002C11.4434 0.433434 11.4658 0.377865 11.4882 0.322297C11.8743 0.216717 12.2493 0.10558 12.641 0C12.6634 0.0555684 12.6858 0.10558 12.7026 0.155592C13.1447 1.3781 13.5868 2.6006 14.0233 3.82866C15.5287 8.00185 17.0341 12.1695 18.5787 16.326C19.004 17.4596 19.4293 18.5988 19.8602 19.7323C20.0281 20.1936 20.2296 20.6492 20.459 21.0827C20.5598 21.2716 20.6661 21.4494 20.7836 21.6272C21.1418 22.1829 21.6958 22.5774 22.3394 22.7442C22.6864 22.8331 23.0333 22.9053 23.3915 22.9498L23.6433 22.9887C23.6769 23.0998 23.6601 23.2054 23.6601 23.311C23.6601 23.4165 23.6601 23.5388 23.6601 23.6499C23.6657 23.7611 23.6601 23.8666 23.6545 23.9778C23.621 23.9833 23.593 23.9889 23.5594 23.9944C23.5202 23.9944 23.481 23.9944 23.4419 23.9944H14.706C14.6948 23.9778 14.6892 23.9555 14.6837 23.9333C14.6837 23.6332 14.6837 23.3332 14.6837 23.0331C14.6837 23.022 14.6892 23.0053 14.6948 22.9942C14.7676 22.972 14.8403 22.9609 14.9187 22.9498C15.2825 22.8997 15.6406 22.8331 15.9988 22.7386C16.1387 22.6997 16.2842 22.6497 16.4185 22.5941C16.4857 22.5663 16.5528 22.533 16.62 22.4941C16.9725 22.2996 17.1125 21.994 17.0789 21.605C17.0621 21.4272 17.0341 21.2549 16.9837 21.0827C16.911 20.8159 16.8158 20.5548 16.7263 20.2991C14.8907 15.2146 13.0775 10.1246 11.2811 5.02339C11.2643 4.96782 11.2531 4.90669 11.1972 4.85668C11.1804 4.86779 11.1524 4.87891 11.1412 4.89002C11.1244 4.91781 11.1132 4.94559 11.1076 4.97337C10.229 7.47951 9.29441 9.96897 8.36542 12.4529C7.67708 14.2922 6.98873 16.1371 6.35075 17.9931C6.09332 18.7377 5.84708 19.4878 5.60644 20.238C5.51131 20.527 5.44415 20.8215 5.39938 21.116C5.3658 21.316 5.36021 21.5161 5.38259 21.7217C5.41057 21.9829 5.55048 22.2218 5.76874 22.3774C5.90864 22.4774 6.06534 22.5552 6.23323 22.6108C6.49626 22.7053 6.76488 22.7719 7.0391 22.8164C7.3413 22.872 7.6435 22.9164 7.9513 22.9609C7.97368 22.9664 7.99047 22.9664 8.01845 22.972C8.02405 22.9942 8.02964 23.0164 8.03524 23.0387C8.03524 23.3276 8.03524 23.6221 8.03524 23.9111C8.03524 23.9278 8.02964 23.9444 8.02405 23.9611C7.99607 23.9667 7.96808 23.9722 7.9401 23.9722C7.90093 23.9722 7.86176 23.9722 7.82258 23.9722L0.0157334 24Z" fill="black"/>
</svg>
