<svg width="24" height="24" viewBox="0 0 24 24" fill="none" xmlns="http://www.w3.org/2000/svg">
<path fill-rule="evenodd" clip-rule="evenodd" d="M12 0C18.6264 0 24 5.3736 24 12C24 18.6264 18.6264 24 12 24C5.3736 24 0 18.6264 0 12C0 5.3736 5.3736 0 12 0Z" fill="#262727"/>
<path d="M12.18 18.716C7.09517 18.716 2.97388 17.2469 2.97388 15.2784C2.97388 14.2513 4.09642 13.3259 5.89312 12.674C7.29551 13.574 9.64871 14.0351 12.3167 14.0351C14.9212 14.0351 17.2235 13.4722 18.6386 12.6104C20.3335 13.256 21.3861 14.1559 21.3861 15.1481C21.3861 17.1197 17.2648 18.716 12.18 18.716Z" fill="white"/>
<path d="M12.234 13.593C8.37985 13.593 5.25391 12.3846 5.25391 10.8932C5.25391 10.0664 6.21745 9.32547 7.72795 8.83257C8.80597 9.39543 10.4214 9.75477 12.234 9.75477C14.0466 9.75477 15.6621 9.39543 16.7401 8.83257C18.2538 9.32865 19.2141 10.0664 19.2141 10.8932C19.2173 12.3846 16.0914 13.593 12.234 13.593Z" fill="white"/>
<path d="M12.2085 9.30638C9.22882 9.30638 6.81201 8.30786 6.81201 7.08038C6.81201 5.85289 9.22882 4.85437 12.2085 4.85437C15.1882 4.85437 17.605 5.85289 17.605 7.08038C17.605 8.30786 15.1882 9.30638 12.2085 9.30638V9.30638Z" fill="white"/>
</svg>
