<svg xmlns="http://www.w3.org/2000/svg" width="24" height="24" fill="none"  xmlns:v="https://vecta.io/nano"><g clip-path="url(#A)"><path d="M0 4.496h24v15.001H0V4.496z" fill="#fff"/><path d="M0 4.496h6.855c-1.194.845-2.16 1.965-2.834 3.273s-1.023 2.753-1.023 4.223a9.24 9.24 0 0 0 1.023 4.232c.674 1.308 1.641 2.428 2.834 3.273H0V4.496zm11.996 0a7.34 7.34 0 0 0-5.222 2.193c-1.381 1.405-2.16 3.314-2.16 5.304s.78 3.899 2.16 5.304 3.265 2.193 5.222 2.193a7.34 7.34 0 0 0 5.222-2.193c1.381-1.405 2.16-3.314 2.16-5.304s-.78-3.898-2.16-5.304-3.265-2.193-5.222-2.193zm12.004 0h-6.855c1.194.845 2.16 1.965 2.834 3.273s1.023 2.753 1.023 4.232c0 1.47-.349 2.924-1.023 4.231a9.11 9.11 0 0 1-2.834 3.273H24V4.496z" fill="#f7931a"/><path d="M15.26 9.797c-.333-.95-1.243-1.064-2.307-.893l-.333-1.348-.812.203.325 1.316-.642.171-.325-1.324-.812.203.333 1.348-.512.138v-.008l-1.121.284.219.877.585-.146c.325-.081.479.081.552.244l.382 1.543c.033-.008.057-.016.089-.016l-.089.024.528 2.16c.008.106-.008.292-.235.349.016.008-.593.146-.593.146l.081 1.023 1.056-.268.577-.138.333 1.364.812-.203-.333-1.356.65-.154.333 1.348.812-.203-.333-1.364c1.34-.422 2.209-1.015 2.006-2.347-.162-1.072-.763-1.413-1.584-1.405.414-.366.601-.869.357-1.568h0zm-.414 3.208c.252 1.024-1.503 1.34-2.047 1.478l-.447-1.811c.552-.13 2.233-.723 2.493.333zm-.999-2.453c.227.926-1.235 1.186-1.689 1.3l-.406-1.64c.455-.122 1.852-.634 2.095.341h0z" fill="#fff"/></g><defs><clipPath id="A"><path fill="#fff" d="M0 0h24v24H0z"/></clipPath></defs></svg>