<svg xmlns="http://www.w3.org/2000/svg" width="24" height="24" fill="none"  xmlns:v="https://vecta.io/nano"><path d="M12 24c6.628 0 12-5.372 12-12S18.628 0 12 0 0 5.372 0 12s5.372 12 12 12z" fill="#070a0e"/><path fill-rule="evenodd" d="M6.932 16.024a1.21 1.21 0 0 1-.578-1.03v-2.345c0-.278.227-.504.505-.503.089 0 .176.024.253.068l5.291 3.085c.31.18.5.511.5.87v2.429c.001.334-.269.605-.602.605-.112 0-.222-.031-.317-.089l-5.052-3.091zm7.886-4.451a1.01 1.01 0 0 1 .5.87v4.93a.4.4 0 0 1-.205.35l-1.158.652c-.014.008-.03.014-.047.019v-2.737a1.01 1.01 0 0 0-.491-.865l-4.646-2.779v-3.09c0-.278.227-.504.505-.503.089 0 .176.024.253.068l5.288 3.085zm2.316-3.641c.311.18.502.512.502.871v7.2c-.001.148-.083.283-.212.354l-1.098.593v-5.012a1.01 1.01 0 0 0-.488-.864l-4.75-2.849v-2.93a.52.52 0 0 1 .067-.253c.14-.24.449-.322.689-.182l5.291 3.073z" fill="#00d395"/></svg>