<svg xmlns="http://www.w3.org/2000/svg" width="24" height="24" fill="none"><g clip-path="url(#A)"><path d="M13 0l10.392 6v12L13 24 2.608 18V6L13 0z" fill="#1f366a"/><path d="M4.841 12.669l2.858-2.137 2.527 1.614v2.903l1.912 1.842-.001.864-1.842 1.726H8.739l-3.897-6.811h-.001zm9.032 5.088l-.004-.869 1.905-1.84v-2.903l2.499-1.634 2.853 2.159-3.878 6.791h-1.536l-1.84-1.704zm-2.709-5.611l-.93-2.435h5.529l-.912 2.435.27 2.722-2.134.005-2.109.004.286-2.73zm1.823-3.103L7.732 9.04l.977-4.366h8.53l1.029 4.371-5.281-.003z" fill="#fff"/></g><defs><clipPath id="A"><path fill="#fff" d="M0 0h24v24H0z"/></clipPath></defs></svg>