<svg xmlns="http://www.w3.org/2000/svg" width="24" height="24" fill="none"><path d="M12 24c6.628 0 12-5.373 12-12S18.628 0 12 0 0 5.373 0 12s5.373 12 12 12z" fill="#7866d5"/><g fill="#fff"><path d="M16.644 6.016l1.133.14c.73.14.978.512.854 1.258-.031.279-.248.497-.528.543-.171.031-.357.047-.528.031l-7.25.016a6.42 6.42 0 0 0-1.087.093c-1.195.186-1.661.683-1.754 1.894-.047.559-.047.559.528.559h9.905c.155 0 .295.047.435.124.435.28.326.73.31 1.133-.016.326-.217.512-.559.574-.14.031-.28.031-.435.031H7.795c-.357 0-.357 0-.326.357a5.27 5.27 0 0 0 .124.978c.155.59.512.963 1.118 1.133.652.186 1.335.217 2.003.233h7.064c.295 0 .575.031.761.31.295.466.14 1.071-.326 1.366a.48.48 0 0 1-.202.093c-.512.171-1.04.202-1.584.217H9.797c-.683-.015-1.366-.093-2.034-.233-1.568-.326-2.36-1.133-2.624-2.717L5 13.048v-2.888l.093-.854c.202-1.785 1.009-2.67 2.763-3.074.621-.14 1.273-.171 1.894-.233l6.893.016z"/><path d="M13.384 17.69c-1.118 0-2.22-.015-3.322-.031a10.43 10.43 0 0 1-2.08-.248c-1.692-.357-2.562-1.258-2.841-2.934a7.03 7.03 0 0 1-.093-.776L5 13.359v-2.95l.031-.279.062-.574c.217-1.91 1.118-2.888 2.996-3.307.497-.109.978-.155 1.459-.202L10.015 6h6.955a2.54 2.54 0 0 0 .342.031l.807.109c.885.171 1.226.668 1.071 1.568-.047.388-.357.714-.776.776-.186.031-.373.047-.574.047l-7.235.031a5.89 5.89 0 0 0-1.04.093c-1.071.171-1.428.559-1.521 1.646 0 .093-.016.186-.016.264h10.169c.202 0 .404.062.574.155.528.342.481.854.45 1.226 0 .047-.016.109-.016.155-.031.435-.295.73-.776.823-.171.031-.326.031-.481.031H8.027v.062c.016.326.047.637.124.947.124.481.419.776.916.916.668.186 1.351.217 1.941.217l5.511.016h1.552c.233 0 .714 0 .994.45.186.295.233.637.155.963s-.279.605-.575.792c-.078.047-.171.093-.264.124-.574.186-1.164.217-1.661.233l-3.338.015zm-7.825-4.378l.031.326.093.745c.248 1.459.947 2.173 2.406 2.484.652.14 1.32.217 1.987.233h6.629c.45-.015.994-.047 1.49-.202.047-.015.093-.047.14-.062.155-.109.28-.264.326-.45a.68.68 0 0 0-.093-.543c-.093-.14-.217-.186-.512-.186h-1.552c-1.801 0-3.68 0-5.511-.015-.621 0-1.351-.031-2.08-.248-.699-.186-1.133-.637-1.304-1.335a4.76 4.76 0 0 1-.124-1.04v-.016c-.016-.217-.031-.373.093-.512s.295-.14.512-.14h9.874c.124 0 .264 0 .388-.031.248-.047.31-.155.326-.31 0-.062.015-.109.015-.171.031-.388.031-.574-.186-.714a.58.58 0 0 0-.279-.078H8.291c-.342 0-.543 0-.699-.155s-.124-.373-.109-.699c.109-1.335.668-1.941 1.987-2.142a9.04 9.04 0 0 1 1.133-.109l7.25-.016c.171 0 .326 0 .481-.031a.33.33 0 0 0 .295-.295c.109-.621-.047-.823-.637-.947a6.11 6.11 0 0 0-.745-.093 2.54 2.54 0 0 0-.342-.031h-6.862l-.466.047-1.397.186c-1.63.404-2.344 1.195-2.531 2.872l-.062.574-.031.264v2.841z"/></g></svg>