<svg width="24" height="24" viewBox="0 0 24 24" fill="none" xmlns="http://www.w3.org/2000/svg">
<circle cx="12" cy="12" r="11.5" fill="#F5F7FD" stroke="#A0B3F2"/>
<path d="M10.6711 15V12.224H7.95906V12.928H9.92706C9.89506 13.512 9.43906 14.408 8.17506 14.408C7.15906 14.408 6.19906 13.664 6.19906 12.16C6.19906 10.656 7.19106 9.928 8.20706 9.928C9.08706 9.928 9.75106 10.408 10.0071 11.224L10.7191 10.92C10.3911 9.896 9.43906 9.208 8.20706 9.208C6.80706 9.208 5.39906 10.24 5.39906 12.16C5.39906 14.08 6.72706 15.12 8.15106 15.12C9.10306 15.12 9.71906 14.648 9.96706 14.2L10.0391 15H10.6711ZM11.5563 13.968C11.5563 14.576 12.0603 15.12 12.8443 15.12C13.5323 15.12 13.9163 14.752 14.0843 14.48C14.0843 14.76 14.1083 14.904 14.1243 15H14.8603C14.8443 14.904 14.8123 14.704 14.8123 14.368V12.44C14.8123 11.688 14.3643 11.032 13.2122 11.032C12.3803 11.032 11.7163 11.544 11.6363 12.28L12.3563 12.448C12.4043 12 12.7003 11.672 13.2283 11.672C13.8123 11.672 14.0603 11.984 14.0603 12.36C14.0603 12.496 13.9963 12.616 13.7643 12.648L12.7243 12.8C12.0603 12.896 11.5563 13.28 11.5563 13.968ZM12.9483 14.488C12.5643 14.488 12.3243 14.216 12.3243 13.928C12.3243 13.584 12.5643 13.4 12.8843 13.352L14.0603 13.176V13.352C14.0603 14.192 13.5643 14.488 12.9483 14.488ZM15.6238 14C15.6878 14.44 16.1358 15.12 17.1918 15.12C18.1438 15.12 18.5998 14.472 18.5998 13.928C18.5998 13.36 18.2318 12.936 17.5358 12.784L16.9118 12.648C16.6158 12.584 16.4718 12.416 16.4718 12.184C16.4718 11.92 16.7278 11.672 17.1118 11.672C17.7198 11.672 17.8798 12.112 17.9118 12.312L18.5758 12.064C18.4958 11.72 18.1678 11.032 17.1118 11.032C16.3598 11.032 15.7438 11.592 15.7438 12.248C15.7438 12.792 16.1038 13.2 16.7038 13.328L17.3598 13.472C17.6798 13.544 17.8558 13.728 17.8558 13.968C17.8558 14.24 17.6238 14.48 17.1998 14.48C16.6558 14.48 16.3518 14.16 16.3038 13.76L15.6238 14Z" fill="#375BD2"/>
</svg>
