<svg xmlns="http://www.w3.org/2000/svg" width="24" height="24" fill="none"><path d="M12 24c6.628 0 12-5.373 12-12S18.628 0 12 0 0 5.373 0 12s5.373 12 12 12z" fill="#0090ff"/><path fill-rule="evenodd" d="M12.933 10.071l-.38 2.027 3.61.507-.253.95-3.547-.507c-.253.823-.38 1.71-.697 2.47l-1.013 2.597c-.507 1.077-1.393 1.837-2.597 2.027-.697.127-1.457.063-2.027-.38-.19-.127-.38-.38-.38-.57 0-.253.127-.57.317-.697.127-.063.443 0 .633.063.19.19.38.443.507.697.38.507.887.57 1.393.19.57-.507.887-1.203 1.077-1.9l1.077-4.497v-.253l-3.357-.507.127-.95 3.483.507.443-1.963-3.61-.57.127-1.013 3.737.507.317-1.013c.317-1.14.633-2.28 1.393-3.293s1.647-1.647 2.977-1.583c.57 0 1.14.19 1.52.633.063.063.19.19.19.317 0 .253 0 .57-.19.76-.253.19-.57.127-.823-.127-.19-.19-.317-.38-.507-.57-.38-.507-.95-.57-1.393-.127-.317.317-.633.76-.823 1.203L13.06 9.121l3.483.507-.253.95-3.357-.507z" fill="#fff"/></svg>