<svg width="24" height="24" viewBox="0 0 24 24" fill="none" xmlns="http://www.w3.org/2000/svg">
<circle cx="12" cy="12" r="12" fill="#121D38"/>
<path d="M2.29176 14.181C2.21535 14.181 2.14704 14.152 2.08683 14.0941C2.02894 14.0339 2 13.9656 2 13.8892V9.76288C2 9.68646 2.02894 9.61931 2.08683 9.56142C2.14704 9.50122 2.21535 9.47112 2.29176 9.47112C2.36818 9.47112 2.43533 9.50122 2.49322 9.56142C2.55342 9.61931 2.58352 9.68646 2.58352 9.76288V11.5065H5.41778V9.76288C5.41778 9.68646 5.44672 9.61931 5.50461 9.56142C5.5625 9.50122 5.63081 9.47112 5.70954 9.47112C5.78595 9.47112 5.8531 9.50122 5.91099 9.56142C5.9712 9.61931 6.0013 9.68646 6.0013 9.76288V13.8892C6.0013 13.9656 5.9712 14.0339 5.91099 14.0941C5.8531 14.152 5.78595 14.181 5.70954 14.181C5.63081 14.181 5.5625 14.152 5.50461 14.0941C5.44672 14.0339 5.41778 13.9656 5.41778 13.8892V12.09H2.58352V13.8892C2.58352 13.9656 2.55342 14.0339 2.49322 14.0941C2.43533 14.152 2.36818 14.181 2.29176 14.181Z" fill="#45FFF4"/>
<path d="M7.73922 14.181C7.54471 14.181 7.44746 14.0837 7.44746 13.8892V9.76288C7.44746 9.56837 7.54471 9.47112 7.73922 9.47112H10.2331C10.4276 9.47112 10.5249 9.56837 10.5249 9.76288C10.5249 9.95739 10.4276 10.0546 10.2331 10.0546H8.03098V11.5134H9.41338C9.60789 11.5134 9.70514 11.6107 9.70514 11.8052C9.70514 11.9997 9.60789 12.097 9.41338 12.097H8.03098V13.5975H10.2331C10.4276 13.5975 10.5249 13.6947 10.5249 13.8892C10.5249 14.0837 10.4276 14.181 10.2331 14.181H7.73922Z" fill="#45FFF4"/>
<path d="M12.8868 14.181C12.3565 14.181 11.964 14.0548 11.7093 13.8024C11.4569 13.5477 11.3307 13.1552 11.3307 12.6249V11.0272C11.3307 10.4923 11.4569 10.0986 11.7093 9.84624C11.9617 9.59153 12.3519 9.46649 12.8798 9.47112H13.7204C14.1557 9.47112 14.488 9.56142 14.7172 9.74204C14.9465 9.92034 15.0796 10.2028 15.1167 10.5895C15.1306 10.6868 15.112 10.7609 15.0611 10.8118C15.0102 10.8628 14.9361 10.8882 14.8388 10.8882C14.6628 10.8882 14.5609 10.791 14.5331 10.5965C14.51 10.3835 14.4359 10.2399 14.3109 10.1658C14.1881 10.0917 13.9913 10.0546 13.7204 10.0546H12.8798C12.6344 10.0523 12.441 10.0801 12.2998 10.138C12.1609 10.1959 12.0613 10.2966 12.0011 10.4402C11.9432 10.5814 11.9142 10.7771 11.9142 11.0272V12.6249C11.9142 12.8727 11.9432 13.0672 12.0011 13.2084C12.0613 13.3497 12.162 13.4504 12.3033 13.5106C12.4445 13.5685 12.639 13.5975 12.8868 13.5975H13.7204C13.9357 13.5975 14.1036 13.5743 14.224 13.528C14.3467 13.4794 14.4324 13.3948 14.481 13.2744C14.5297 13.154 14.554 12.9838 14.554 12.7639V12.4374L14.0121 12.4304C13.8176 12.4304 13.7204 12.3332 13.7204 12.1387C13.7204 11.9441 13.8176 11.8469 14.0121 11.8469L14.8458 11.8538C15.0403 11.8538 15.1375 11.9511 15.1375 12.1456V12.7639C15.1375 13.2571 15.0229 13.6171 14.7937 13.8441C14.5644 14.0687 14.2067 14.181 13.7204 14.181H12.8868Z" fill="#45FFF4"/>
<path d="M16.6397 14.181C16.5401 14.181 16.466 14.1578 16.4174 14.1115C16.3711 14.0629 16.3479 13.9888 16.3479 13.8892V9.76983C16.3479 9.66794 16.3711 9.59384 16.4174 9.54753C16.466 9.50122 16.5401 9.47806 16.6397 9.47806C16.7416 9.47806 16.8157 9.50122 16.862 9.54753C16.9083 9.59384 16.9314 9.66794 16.9314 9.76983V13.8892C16.9314 13.9888 16.9083 14.0629 16.862 14.1115C16.8157 14.1578 16.7416 14.181 16.6397 14.181Z" fill="#45FFF4"/>
<path d="M19.7656 14.181C19.2354 14.181 18.8429 14.0548 18.5882 13.8024C18.3358 13.5477 18.2096 13.1552 18.2096 12.6249V11.0272C18.2096 10.4923 18.3358 10.0986 18.5882 9.84624C18.8406 9.59153 19.2307 9.46649 19.7587 9.47112H20.5992C21.0346 9.47112 21.3669 9.56142 21.5961 9.74204C21.8253 9.92034 21.9585 10.2028 21.9955 10.5895C22.0094 10.6868 21.9909 10.7609 21.94 10.8118C21.889 10.8628 21.8149 10.8882 21.7177 10.8882C21.5417 10.8882 21.4398 10.791 21.412 10.5965C21.3889 10.3835 21.3148 10.2399 21.1897 10.1658C21.067 10.0917 20.8702 10.0546 20.5992 10.0546H19.7587C19.5132 10.0523 19.3199 10.0801 19.1786 10.138C19.0397 10.1959 18.9401 10.2966 18.8799 10.4402C18.8221 10.5814 18.7931 10.7771 18.7931 11.0272V12.6249C18.7931 12.8727 18.8221 13.0672 18.8799 13.2084C18.9401 13.3497 19.0409 13.4504 19.1821 13.5106C19.3234 13.5685 19.5179 13.5975 19.7656 13.5975H20.5992C20.8702 13.5975 21.067 13.5604 21.1897 13.4863C21.3148 13.4099 21.3889 13.2663 21.412 13.0556C21.4398 12.8611 21.5417 12.7639 21.7177 12.7639C21.8149 12.7639 21.889 12.7893 21.94 12.8403C21.9909 12.8912 22.0094 12.9653 21.9955 13.0626C21.9585 13.4516 21.8253 13.7352 21.5961 13.9135C21.3669 14.0918 21.0346 14.181 20.5992 14.181H19.7656Z" fill="#45FFF4"/>
</svg>
