<svg width="24" height="24" viewBox="0 0 24 24" fill="none" xmlns="http://www.w3.org/2000/svg">
<g clip-path="url(#clip0)">
<path d="M14.2075 7.3819C14.2075 3.93819 12.5475 0.971299 11.276 -4.06069e-06C11.276 -4.06069e-06 11.1877 -0.0529842 11.1877 0.0882962C11.0817 6.74613 7.70865 8.56512 5.83669 10.9845C1.5453 16.6004 5.53647 22.7461 9.59828 23.8764C11.8764 24.5121 9.06848 22.7461 8.71527 19.0375C8.29143 14.5342 14.2075 11.1082 14.2075 7.3819" fill="#282E5B"/>
<path d="M16.4327 9.66003C16.4151 9.64237 16.3798 9.64237 16.3444 9.66003C16.3444 9.66003 16.3444 9.66003 16.3268 9.67769C16.2561 10.5077 15.3378 12.309 14.1899 13.9514C10.287 19.532 12.5122 22.2163 13.7661 23.6644C14.4901 24.5121 13.7661 23.6644 15.5851 22.7991C15.7263 22.7285 19.1171 20.9271 19.4879 16.8477C19.8588 12.8742 17.3334 10.3841 16.4327 9.66003" fill="#059BDC"/>
</g>
<defs>
<clipPath id="clip0">
<rect width="24" height="24" fill="white"/>
</clipPath>
</defs>
</svg>
