<svg xmlns="http://www.w3.org/2000/svg" width="24" height="24" fill="none"  xmlns:v="https://vecta.io/nano"><g clip-path="url(#A)" fill="#31cb9e"><path d="M11.159 11.998l8.949 5.126a.47.47 0 0 0 .238.067c.084.001.167-.02.239-.062a.48.48 0 0 0 .175-.175c.042-.073.064-.155.063-.239V7.273a.47.47 0 0 0-.716-.404l-8.949 5.129zM19.918 4.6L13.801.1a.48.48 0 0 0-.451-.075c-.076.026-.144.069-.199.127s-.095.129-.116.206L10.801 10.38l9.063-5.011a.45.45 0 0 0 .054-.77z"/><path d="M13.793 23.893l6.124-4.499a.46.46 0 0 0-.05-.78L10.8 13.603l2.234 10.022a.49.49 0 0 0 .305.343.48.48 0 0 0 .235.024c.079-.011.154-.043.218-.091m-4.96-12.089L11.159.931a.46.46 0 0 0-.2-.476.46.46 0 0 0-.516.007l-5.96 4.571c-.151.116-.273.265-.357.436A1.23 1.23 0 0 0 4 6.018v11.597c-.003.193.039.383.123.557s.207.325.36.442l5.931 4.557a.46.46 0 0 0 .716-.469l-2.298-10.89z"/></g><defs><clipPath id="A"><path fill="#fff" d="M0 0h24v24H0z"/></clipPath></defs></svg>