<svg xmlns="http://www.w3.org/2000/svg" width="24" height="24" fill="none"  xmlns:v="https://vecta.io/nano"><path d="M12 24c6.627 0 12-5.373 12-12S18.627 0 12 0 0 5.373 0 12s5.373 12 12 12z" fill="url(#A)"/><g fill-rule="evenodd"><path d="M8.502 7.8v9h7.5l-7.5-9z" fill="url(#B)"/><path d="M1.002 16.8h7.5v-9l-7.5 9z" fill="#fff"/><path d="M2.4 19.2a12.29 12.29 0 0 0 2.4 2.4h14.4a12.29 12.29 0 0 0 2.4-2.4H2.4z" fill="#fc9965"/><path d="M4.8 21.6A11.95 11.95 0 0 0 12 24a11.95 11.95 0 0 0 7.2-2.4H4.8z" fill="#ff2d55"/><path d="M16.098 12.6v6.6H21.6l-5.502-6.6z" fill="url(#C)"/><path d="M16.098 16.8H1.002A11.95 11.95 0 0 0 2.4 19.2h13.704v-2.4h-.006z" fill="#ffbc5b"/><path d="M10.602 19.2h5.496v-6.6l-5.496 6.6z" fill="#fff"/></g><path d="M16.098 10.8a3 3 0 1 0 0-6 3 3 0 1 0 0 6zM8.502 6a1.5 1.5 0 1 0 0-3 1.5 1.5 0 1 0 0 3z" fill="#ffc95b"/><defs><linearGradient id="A" x1="20.485" y1="3.515" x2="3.515" y2="20.485" gradientUnits="userSpaceOnUse"><stop stop-color="#ff2d55"/><stop offset="1" stop-color="#ffbc5b"/></linearGradient><linearGradient id="B" x1="12.25" y1="7.8" x2="12.25" y2="16.8" gradientUnits="userSpaceOnUse"><stop stop-color="#a524b3"/><stop offset="1" stop-color="#ff2d55"/></linearGradient><linearGradient id="C" x1="18.847" y1="12.6" x2="18.847" y2="19.2" gradientUnits="userSpaceOnUse"><stop stop-color="#a524b3"/><stop offset="1" stop-color="#ff2d55"/></linearGradient></defs></svg>