<svg width="24" height="24" viewBox="0 0 24 24" fill="none" xmlns="http://www.w3.org/2000/svg">
<circle cx="12" cy="12" r="12" fill="url(#paint0_linear)"/>
<path fill-rule="evenodd" clip-rule="evenodd" d="M12.5016 7.23269C12.5016 6.32069 13.2447 5.58139 14.1615 5.58139C15.0782 5.58139 15.8214 6.32069 15.8214 7.23274V11.9866H17.9918V8.54355C17.9918 8.01739 18.4205 7.59085 18.9494 7.59085C19.4783 7.59085 19.9071 8.01739 19.9071 8.54355V11.9866H17.9918V15.8051C17.9918 16.4014 17.5058 16.8848 16.9064 16.8848C16.307 16.8848 15.8211 16.4014 15.8211 15.8051V11.9867H12.5016V16.8027C12.5016 17.7497 11.7298 18.5175 10.7778 18.5175C9.82574 18.5175 9.054 17.7497 9.054 16.8027V11.9866L12.5016 11.9867V7.23269ZM6.88315 8.79627C6.88315 8.19994 7.36909 7.71652 7.96847 7.71652C8.5679 7.71652 9.05384 8.19994 9.05384 8.79627L9.054 11.9866L6.88315 11.9867V8.79627ZM5.47861 15.001C6.25431 15.001 6.88315 14.3754 6.88315 13.6037V11.9867H4.07401V13.6037C4.07401 14.3754 4.70286 15.001 5.47861 15.001ZM21.9796 13.0342C21.9796 13.6167 21.5049 14.089 20.9194 14.089C20.3338 14.089 19.8592 13.6167 19.8592 13.0342V11.9912H21.9796V13.0342ZM3.01359 9.89342C2.42807 9.89342 1.95337 10.3657 1.95337 10.9481V11.9912H4.07381V10.9481C4.07381 10.3657 3.59916 9.89342 3.01359 9.89342Z" fill="white"/>
<defs>
<linearGradient id="paint0_linear" x1="12" y1="0" x2="12" y2="24" gradientUnits="userSpaceOnUse">
<stop stop-color="#3F88E1"/>
<stop offset="1" stop-color="#41F2CA"/>
</linearGradient>
</defs>
</svg>
