<svg width="24" height="24" viewBox="0 0 24 24" fill="none" xmlns="http://www.w3.org/2000/svg">
<path d="M4.95212 2.26706L23.5958 14.9969L18.985 21.8129L0.341309 8.98281L4.95212 2.26706Z" fill="url(#paint0_linear)"/>
<path d="M23.5959 14.9969C21.9922 17.3023 16.5795 16.4002 11.4675 12.7917C6.25526 9.28351 3.44867 4.57246 4.9522 2.26706C6.55596 -0.0383486 11.9687 0.863767 17.0806 4.47223C22.2929 7.88022 25.0994 12.6915 23.5959 14.9969Z" fill="url(#paint1_linear)"/>
<path d="M18.9851 21.7127C17.3813 24.0181 11.9686 23.116 6.85664 19.5075C1.74465 15.899 -1.16217 11.2882 0.441595 8.88258C2.04536 6.57718 7.45805 7.47929 12.57 11.0878C17.682 14.6962 20.4886 19.4073 18.9851 21.7127Z" fill="url(#paint2_linear)"/>
<path d="M23.5959 14.9969L18.9851 21.8129C17.3813 24.1183 11.9686 23.1159 6.85663 19.6077C5.85428 18.9061 4.95216 18.2044 4.05005 17.4025C4.75169 17.3023 5.65381 16.9014 6.55593 15.899C8.15969 14.195 8.96157 13.7941 9.66321 13.8943C10.3649 13.8943 11.1667 14.596 12.4698 16.3C13.7729 18.004 15.5771 18.5051 16.6797 17.603C16.7799 17.5028 16.8801 17.5028 16.9804 17.4025C17.8825 16.7009 18.1832 16.4002 19.8872 13.1927C20.2881 12.3908 21.6914 11.0877 23.5959 11.6891C24.0971 12.9922 24.0971 14.0948 23.5959 14.9969Z" fill="#0E0F23"/>
<path fill-rule="evenodd" clip-rule="evenodd" d="M22.8942 14.596C21.4909 16.6007 16.5794 15.5983 11.8683 12.2906C7.05705 8.98279 4.25047 4.77292 5.65376 2.76822C7.05705 0.763517 11.9686 1.76587 16.6796 5.07363C21.3907 8.38138 24.1972 12.5913 22.8942 14.596ZM18.4838 11.5889C17.7822 12.5913 15.3766 12.0901 12.9709 10.4863C10.6655 8.88256 9.26222 6.77762 9.96387 5.77527C10.6655 4.77292 13.0712 5.2741 15.4768 6.87786C17.7822 8.48162 19.1855 10.5866 18.4838 11.5889Z" fill="white"/>
<path d="M4.55133 4.57246C4.55133 4.47223 4.4511 4.37199 4.35086 4.47223C4.25063 4.57246 4.15039 4.57246 4.15039 4.6727C4.25063 4.9734 4.35086 5.17387 4.35086 5.37434C4.35086 5.47458 4.4511 5.57481 4.55133 5.47458C4.65157 5.47458 4.7518 5.37434 4.65157 5.27411C4.65157 5.07364 4.65157 4.87317 4.55133 4.57246Z" fill="white"/>
<path d="M5.05241 6.17622C5.05241 6.07599 4.95218 5.97575 4.85194 6.07599C4.75171 6.17622 4.75171 6.17622 4.75171 6.27646C5.85429 8.78234 8.1597 11.4887 11.1668 13.4934C11.267 13.5936 11.3672 13.4934 11.4675 13.4934C11.5677 13.3931 11.4675 13.2929 11.4675 13.1927C8.36017 11.188 6.155 8.58187 5.05241 6.17622Z" fill="white"/>
<path d="M17.1809 15.9993C17.0807 15.9993 16.9805 15.9993 16.9805 16.0995C16.9805 16.1997 16.9805 16.3 17.0807 16.3C17.3814 16.4002 17.7823 16.5004 18.0831 16.6007C18.1833 16.6007 18.2835 16.6007 18.2835 16.5004C18.2835 16.4002 18.2835 16.3 18.1833 16.3C17.8826 16.1997 17.4816 16.0995 17.1809 15.9993Z" fill="white"/>
<path d="M18.9849 16.4002C18.8847 16.4002 18.7844 16.5004 18.7844 16.6007C18.7844 16.7009 18.8847 16.8011 18.9849 16.8011C19.7868 16.9014 20.6889 17.0016 21.3905 16.9014C21.4908 16.9014 21.591 16.8011 21.591 16.7009C21.591 16.6007 21.4908 16.5004 21.3905 16.5004C20.5887 16.6007 19.7868 16.5004 18.9849 16.4002Z" fill="white"/>
<defs>
<linearGradient id="paint0_linear" x1="8.60489" y1="0.457115" x2="12.3022" y2="13.1531" gradientUnits="userSpaceOnUse">
<stop stop-color="#03B8FF"/>
<stop offset="1" stop-color="#FA52A0"/>
</linearGradient>
<linearGradient id="paint1_linear" x1="11.6497" y1="-0.429666" x2="15.3471" y2="12.2664" gradientUnits="userSpaceOnUse">
<stop stop-color="#03B8FF"/>
<stop offset="1" stop-color="#FA52A0"/>
</linearGradient>
<linearGradient id="paint2_linear" x1="5.56962" y1="1.341" x2="9.26699" y2="14.0371" gradientUnits="userSpaceOnUse">
<stop stop-color="#03B8FF"/>
<stop offset="1" stop-color="#FA52A0"/>
</linearGradient>
</defs>
</svg>
