<svg xmlns="http://www.w3.org/2000/svg" width="24" height="24" fill="none"  xmlns:v="https://vecta.io/nano"><path d="M12 24C5.4 24 0 18.6 0 12C0 5.4 5.4 0 12 0C18.6 0 24 5.4 24 12C24 18.6 18.6 24 12 24Z" fill="#002868"/><path d="M18.048 19.2H5.952c-.634 0-1.152-.518-1.152-1.152V5.952c0-.634.518-1.152 1.152-1.152h12.096c.634 0 1.152.518 1.152 1.152v12.096c0 .634-.518 1.152-1.152 1.152z" fill="#fff"/><path d="M7.61 17.75c-.038 0-.069-.035-.069-.072v-1.935c0-.038-.031-.072-.069-.072H6.79c-.038 0-.072-.031-.072-.069v-.374c0-.038.035-.072.072-.072h2.102c.038 0 .072.034.072.072v.374c0 .038-.035.069-.072.069h-.679c-.038 0-.072.034-.072.072v1.935c0 .038-.031.072-.069.072H7.61zm3.453-2.522c0-.038.031-.072.069-.072h.458c.038 0 .072.034.072.072v1.321c0 .782-.443 1.236-1.145 1.236s-1.137-.454-1.137-1.236v-1.321c0-.038.031-.072.069-.072h.458c.038 0 .072.034.072.072v1.339c0 .385.198.66.542.66s.542-.275.542-.66v-1.339zm2.702.775c-.061 0-.08-.023-.103-.069-.08-.187-.256-.305-.523-.305-.24 0-.442.084-.442.244 0 .176.187.248.599.298.626.073.984.264.984.759 0 .557-.489.851-1.114.851-.542 0-1.008-.263-1.08-.816-.008-.053.019-.072.072-.072h.42c.053 0 .084.023.099.065.057.183.252.324.534.324.248 0 .466-.092.466-.286 0-.233-.229-.275-.687-.332-.527-.069-.893-.221-.893-.706s.416-.832 1.068-.832c.588 0 .996.317 1.08.79.012.053-.004.088-.061.088h-.42zm1.034 1.747c-.038 0-.069-.035-.069-.072v-2.45c0-.038.031-.072.069-.072h1.038c.771 0 1.37.53 1.37 1.305 0 .763-.591 1.29-1.37 1.29h-1.038zm1.038-.515c.416 0 .74-.328.74-.782s-.324-.782-.744-.782h-.431c-.038 0-.069.034-.069.072v1.423c0 .038.031.069.069.069h.435zm2.979-3.507H5.184c-.106 0-.192-.086-.192-.192V5.952c0-.528.432-.96.96-.96h12.096c.528 0 .96.432.96.96v7.584c0 .106-.086.192-.192.192z" fill="#002868"/><g fill="#fff"><path d="M12.707 12.171h-1.248c-.079 0-.144-.065-.144-.144v-5.28c0-.079.065-.144.144-.144h1.248c.079 0 .144.065.144.144v5.28c0 .079-.065.144-.144.144z"/><path d="M14.832 8.139H9.168c-.079 0-.144-.065-.144-.144V6.747c0-.079.065-.144.144-.144h5.664c.079 0 .144.065.144.144v1.248c0 .079-.065.144-.144.144z"/></g></svg>