<svg width="24" height="24" viewBox="0 0 24 24" fill="none" xmlns="http://www.w3.org/2000/svg">
<path d="M15.3937 15.0114H14.3787C14.3335 15.0115 14.2886 15.0026 14.2468 14.9853C14.2049 14.9681 14.1669 14.9427 14.1348 14.9108C14.1028 14.8788 14.0773 14.8408 14.0599 14.799C14.0425 14.7572 14.0335 14.7124 14.0335 14.6672V11.9924L12.2519 13.1063C12.1786 13.1522 12.0938 13.1765 12.0074 13.1765C11.9209 13.1765 11.8362 13.1522 11.7628 13.1063L9.98092 11.9922V14.6672C9.98085 14.7124 9.97186 14.7572 9.95447 14.799C9.93708 14.8408 9.91163 14.8788 9.87957 14.9108C9.84751 14.9427 9.80947 14.9681 9.76761 14.9853C9.72576 15.0026 9.68092 15.0115 9.63564 15.0114H8.62067C8.57539 15.0115 8.53055 15.0026 8.4887 14.9853C8.44684 14.9681 8.4088 14.9427 8.37674 14.9108C8.34468 14.8788 8.31922 14.8408 8.30183 14.799C8.28445 14.7572 8.27546 14.7124 8.27539 14.6672V9.51169C8.27564 9.42801 8.2987 9.34598 8.34208 9.27442C8.38545 9.20286 8.44752 9.14448 8.52159 9.10555C8.59566 9.06663 8.67895 9.04862 8.76249 9.05348C8.84602 9.05834 8.92666 9.08588 8.99572 9.13313L11.8122 11.0568C11.8697 11.0961 11.9377 11.1171 12.0074 11.1171C12.077 11.1171 12.145 11.0961 12.2025 11.0568L15.0185 9.13313C15.0875 9.08577 15.1682 9.05815 15.2517 9.05323C15.3353 9.0483 15.4187 9.06627 15.4928 9.1052C15.5669 9.14412 15.629 9.20253 15.6724 9.27412C15.7158 9.34572 15.7388 9.4278 15.739 9.51151V14.6672C15.7389 14.7124 15.7299 14.7572 15.7126 14.799C15.6952 14.8408 15.6697 14.8788 15.6377 14.9108C15.6056 14.9427 15.5675 14.9681 15.5257 14.9853C15.4838 15.0026 15.439 15.0115 15.3937 15.0114" fill="#FF4A4A"/>
<path d="M6.74625 14.9655H0.458089C0.397986 14.9656 0.338458 14.9538 0.282906 14.9308C0.227354 14.9079 0.176867 14.8742 0.134327 14.8318C0.091787 14.7893 0.0580289 14.7389 0.0349807 14.6834C0.0119325 14.6279 4.59809e-05 14.5684 0 14.5083L0 9.34282C4.59857e-05 9.29776 0.00896794 9.25314 0.0262565 9.21152C0.043545 9.16991 0.0688615 9.1321 0.100761 9.10027C0.13266 9.06843 0.170516 9.04319 0.21217 9.02599C0.253823 9.00879 0.298457 8.99996 0.343523 9H1.35377C1.39884 8.99996 1.44347 9.00879 1.48512 9.02599C1.52678 9.04319 1.56463 9.06843 1.59653 9.10027C1.62843 9.1321 1.65375 9.16991 1.67104 9.21152C1.68833 9.25314 1.69725 9.29776 1.69729 9.34282V13.2721H5.50705V9.34282C5.50707 9.29772 5.51599 9.25307 5.53329 9.21142C5.55059 9.16976 5.57594 9.13193 5.60788 9.10009C5.63982 9.06825 5.67773 9.04302 5.71943 9.02584C5.76114 9.00867 5.80582 8.99989 5.85092 9H6.86117C6.90624 8.99996 6.95087 9.00879 6.99252 9.02599C7.03418 9.04319 7.07203 9.06843 7.10393 9.10027C7.13583 9.1321 7.16115 9.16991 7.17844 9.21152C7.19572 9.25314 7.20465 9.29776 7.20469 9.34282V14.5085C7.20462 14.5685 7.19272 14.628 7.16966 14.6835C7.1466 14.739 7.11284 14.7894 7.0703 14.8318C7.02777 14.8743 6.97729 14.9079 6.92175 14.9309C6.86621 14.9538 6.80669 14.9656 6.7466 14.9655" fill="#FF4A4A"/>
<path d="M17.253 9H23.5419C23.602 8.99993 23.6615 9.0117 23.717 9.03463C23.7726 9.05756 23.823 9.09121 23.8656 9.13365C23.9081 9.17609 23.9419 9.22649 23.9649 9.28198C23.988 9.33746 23.9999 9.39695 24 9.45704V14.6232C23.9999 14.6683 23.991 14.7129 23.9737 14.7545C23.9564 14.7961 23.9311 14.8339 23.8992 14.8657C23.8673 14.8976 23.8294 14.9228 23.7878 14.94C23.7461 14.9572 23.7015 14.9661 23.6564 14.966H22.6458C22.6007 14.9661 22.5561 14.9573 22.5144 14.9401C22.4727 14.9229 22.4348 14.8977 22.4029 14.8659C22.3709 14.834 22.3456 14.7962 22.3283 14.7546C22.311 14.7129 22.302 14.6683 22.302 14.6232V10.9219C22.3017 10.8613 22.2774 10.8033 22.2345 10.7607C22.1915 10.718 22.1334 10.694 22.0728 10.6941H18.7219C18.6613 10.694 18.6032 10.718 18.5602 10.7607C18.5173 10.8033 18.493 10.8613 18.4927 10.9219V14.6232C18.4927 14.6683 18.4838 14.7129 18.4665 14.7545C18.4492 14.7961 18.4239 14.8339 18.392 14.8657C18.3601 14.8976 18.3222 14.9228 18.2806 14.94C18.2389 14.9572 18.1943 14.9661 18.1492 14.966H17.1384C17.0934 14.9661 17.0487 14.9572 17.0071 14.94C16.9654 14.9228 16.9276 14.8976 16.8957 14.8657C16.8638 14.8339 16.8385 14.7961 16.8212 14.7545C16.8039 14.7129 16.795 14.6683 16.7949 14.6232V9.45704C16.795 9.39695 16.8069 9.33746 16.83 9.28198C16.853 9.22649 16.8868 9.17609 16.9293 9.13365C16.9718 9.09121 17.0223 9.05756 17.0779 9.03463C17.1334 9.0117 17.1929 8.99993 17.253 9" fill="#FF4A4A"/>
<path d="M19.5481 12.1395V13.1566C19.5483 13.2015 19.5574 13.246 19.5748 13.2874C19.5922 13.3288 19.6176 13.3664 19.6495 13.398C19.6815 13.4296 19.7193 13.4546 19.7609 13.4716C19.8025 13.4886 19.847 13.4972 19.892 13.497H20.902C20.947 13.4972 20.9915 13.4886 21.0331 13.4716C21.0747 13.4546 21.1125 13.4296 21.1445 13.398C21.1764 13.3664 21.2018 13.3288 21.2192 13.2874C21.2366 13.246 21.2457 13.2015 21.2459 13.1566V12.1395C21.2457 12.0946 21.2366 12.0502 21.2192 12.0087C21.2018 11.9673 21.1764 11.9297 21.1445 11.8981C21.1125 11.8665 21.0747 11.8415 21.0331 11.8245C20.9915 11.8075 20.947 11.7989 20.902 11.7992H19.892C19.847 11.7989 19.8025 11.8075 19.7609 11.8245C19.7193 11.8415 19.6815 11.8665 19.6495 11.8981C19.6176 11.9297 19.5922 11.9673 19.5748 12.0087C19.5574 12.0502 19.5483 12.0946 19.5481 12.1395" fill="#FF4A4A"/>
</svg>
