<svg xmlns="http://www.w3.org/2000/svg" width="24" height="24" fill="none"><path d="M14.341 24c-1.706 0-2.951-.413-3.735-1.238a3.83 3.83 0 0 1-1.173-2.667c-.009-.307.062-.61.205-.881a1.52 1.52 0 0 1 .56-.563c.271-.136.569-.206.872-.206s.601.071.872.206c.233.134.425.328.557.563a1.74 1.74 0 0 1 .213.881 1.69 1.69 0 0 1-.299 1.031 1.39 1.39 0 0 1-.71.521 1.94 1.94 0 0 0 1.121.701c.497.145 1.011.219 1.528.221.684.006 1.355-.195 1.924-.578.59-.419 1.03-1.017 1.255-1.706a7.44 7.44 0 0 0 .411-2.554c.023-.906-.129-1.807-.448-2.655-.24-.678-.695-1.258-1.296-1.65-.558-.355-1.206-.541-1.867-.536-.576.049-1.131.238-1.617.551l-1.199.604v-.604l5.39-7.259H9.432v7.533c-.021.544.122 1.081.411 1.541a1.42 1.42 0 0 0 .549.467 1.41 1.41 0 0 0 .707.136c.45-.009.884-.163 1.24-.439.403-.297.755-.659 1.038-1.072.026-.072.073-.135.135-.18.05-.043.114-.067.18-.068a.62.62 0 0 1 .351.15.75.75 0 0 1 .19.51 3 3 0 0 1-.067.375 3.63 3.63 0 0 1-1.281 1.597 3.17 3.17 0 0 1-1.797.548c-1.617 0-2.738-.32-3.362-.96A3.6 3.6 0 0 1 7 15.105a3.61 3.61 0 0 1-.2-1.406V6.185H3v-1.4h3.818V1.594L5.944.716V0H8.48l.953.495v4.29l9.869-.03.982.99-6.051 6.105c.366-.148.751-.241 1.143-.277a4.94 4.94 0 0 1 2.212.634 4.55 4.55 0 0 1 1.905 1.707 6.04 6.04 0 0 1 .859 2.059 8.71 8.71 0 0 1 .205 1.763c.004 1.132-.252 2.249-.747 3.266a4.78 4.78 0 0 1-2.241 2.25 7.23 7.23 0 0 1-3.228.75h0z" fill="#2c7df7"/></svg>