<svg xmlns="http://www.w3.org/2000/svg" width="24" height="24" fill="none"><path d="M12 24c6.628 0 12-5.373 12-12S18.628 0 12 0 0 5.373 0 12s5.373 12 12 12z" fill="#006ae3"/><path d="M11.884 16.995V6.211h1.174v10.783h-1.174zm5.977-7.191l-3.626.962-.809-3.764 1.078-.244.425 1.783s.98-1.607-.327-3.271c-.77-.855-1.135-.892-1.999-1.026-.759-.109-2.525.148-3.051 2.208-.223 1.327.029 2.31 1.739 3.595l-.096 1.431s-1.91-1.345-2.403-2.289c-.381-.747-1.034-2.221.145-4.274.635-1.026 1.887-2.011 4.093-1.908 1.109.047 3.818 1.402 3.398 4.57-.073.594-.381 1.384-.381 1.384l1.488-.332.324 1.174zm-2.071 8.437c-.664 1.008-1.941 1.96-4.142 1.799-1.11-.075-3.779-1.504-3.276-4.658.088-.591.417-1.371.417-1.371l-1.496.29L7 13.122l3.652-.866.71 3.785-1.086.215-.378-1.796s-1.021 1.579.239 3.279c.746.876 1.109.92 1.973 1.078.754.13 2.527-.083 3.108-2.128.257-1.319.031-2.31-1.643-3.642l.135-1.428s1.874 1.394 2.341 2.351c.358.76.972 2.253-.259 4.272h0z" fill="#fff"/></svg>