<svg xmlns="http://www.w3.org/2000/svg" width="24" height="24" fill="none"  xmlns:v="https://vecta.io/nano"><path d="M18.352 15.974l2.588 3.459c-1.743 2.06-3.908 3.38-6.522 3.934-2.905.607-5.651.158-8.318-1.32l7.05-5.255 1.531 1.479c.555.528.343.555 1.056.159.977-.555 1.796-1.32 2.429-2.245.026-.053.079-.106.106-.158-.026 0 0 0 .079-.053zM7.974 18.298L6.1 19.724l-1.347 1.003c-.185.159-.317.159-.528-.026-2.007-1.796-3.274-4.014-3.75-6.654C0 11.38.423 8.845 1.69 6.442c.026-.053.079-.132.106-.185 0-.026.026-.026.079-.053l5.255 6.892c-.053.079-.079.132-.132.185l-1.611 1.637c-.158.158-.185.29-.079.475.555 1.056 1.32 1.928 2.271 2.64l.396.264zM17.824 1.9l-2.535 1.796-4.331 3.116c-.185.132-.317.158-.475-.026L9.031 5.333c-.132-.132-.264-.158-.449-.079-1.135.581-2.033 1.399-2.773 2.429-.053.053-.106.132-.158.211L4.436 6.31 3.222 4.673c-.132-.185-.158-.317.026-.502C5.281 1.926 7.79.606 10.8.289c2.377-.264 4.647.211 6.76 1.347.079.053.158.079.238.132 0 .079 0 .106.026.132zm4.304 15.843L20.57 15.71l-3.512-4.621c-.159-.211-.159-.343.026-.528l1.479-1.505c.132-.132.185-.264.079-.449-.581-1.109-1.373-2.033-2.403-2.773-.079-.053-.158-.132-.264-.185.079-.079.159-.132.211-.185l3.01-2.271c.158-.132.291-.185.475 0 2.508 2.271 3.855 5.096 3.987 8.502.053 1.98-.396 3.855-1.294 5.624a2 2 0 0 0-.238.422z" fill="#231815"/></svg>